<?xml version="1.0" encoding="UTF-8" standalone="no"?>
<!-- Created with Inkscape (http://www.inkscape.org/) -->

<svg
   xmlns:dc="http://purl.org/dc/elements/1.1/"
   xmlns:cc="http://creativecommons.org/ns#"
   xmlns:rdf="http://www.w3.org/1999/02/22-rdf-syntax-ns#"
   xmlns:svg="http://www.w3.org/2000/svg"
   xmlns="http://www.w3.org/2000/svg"
   xmlns:sodipodi="http://sodipodi.sourceforge.net/DTD/sodipodi-0.dtd"
   xmlns:inkscape="http://www.inkscape.org/namespaces/inkscape"
   width="400mm"
   height="500mm"
   viewBox="0 0 400 500"
   version="1.1"
   id="svg8"
   inkscape:version="0.92.3 (2405546, 2018-03-11)"
   sodipodi:docname="desenhando.svg">
  <defs
     id="defs2">
    <clipPath
       id="clip0-4">
      <rect
         id="rect314"
         transform="translate(22.4889,4)"
         height="30"
         width="30.6667"
         x="0"
         y="0"
         style="fill:#ffffff" />
    </clipPath>
  </defs>
  <sodipodi:namedview
     id="base"
     pagecolor="#ffffff"
     bordercolor="#666666"
     borderopacity="1.0"
     inkscape:pageopacity="0.0"
     inkscape:pageshadow="2"
     inkscape:zoom="0.42440218"
     inkscape:cx="606.16265"
     inkscape:cy="1020.1606"
     inkscape:document-units="mm"
     inkscape:current-layer="layer1"
     showgrid="false"
     inkscape:window-width="1920"
     inkscape:window-height="1027"
     inkscape:window-x="-8"
     inkscape:window-y="-8"
     inkscape:window-maximized="1" />
  <metadata
     id="metadata5">
    <rdf:RDF>
      <cc:Work
         rdf:about="">
        <dc:format>image/svg+xml</dc:format>
        <dc:type
           rdf:resource="http://purl.org/dc/dcmitype/StillImage" />
        <dc:title></dc:title>
      </cc:Work>
    </rdf:RDF>
  </metadata>
  <g
     inkscape:label="Camada 1"
     inkscape:groupmode="layer"
     id="layer1"
     transform="translate(0,203)">
    <g
       style="fill:#ff6853"
       id="g16"
       transform="matrix(0.77151993,0,0,0.72643399,3.8129306,-75.796399)">
      <path
         inkscape:connector-curvature="0"
         d="m 280.02344,476.83984 v 32 c 11.44922,-0.004 22.88281,-0.83984 34.21093,-2.49609 l -4.65625,-31.66406 c -9.78515,1.4414 -19.66406,2.16406 -29.55468,2.16015 z m 0,0"
         id="path10" />
      <path
         inkscape:connector-curvature="0"
         d="m 338.41016,468.18359 9.34375,30.59375 c 10.95703,-3.34765 21.65234,-7.5039 32,-12.43359 l -13.76172,-28.80078 c -8.92188,4.21875 -18.14063,7.77344 -27.58203,10.64062 z m 0,0"
         id="path12" />
      <path
         inkscape:connector-curvature="0"
         d="m 280.02344,44.839844 h -40 L 265.625,25.640625 246.42578,0.0390625 165.35156,60.839844 246.42578,121.64063 265.625,96.039062 240.02344,76.839844 h 40 c 87.98437,-0.01172 165.64062,57.468746 191.32422,141.621096 25.67968,84.14843 -6.64453,175.19922 -79.64454,224.3164 L 409.625,469.30469 C 494.28906,412.32031 531.76953,306.69922 501.96875,209.09375 472.16797,111.48437 382.07812,44.816406 280.02344,44.839844 Z m 0,0"
         id="path14" />
    </g>
    <path
       style="fill:#ffffff;stroke-width:0.74863762"
       inkscape:connector-curvature="0"
       d="m 166.68199,163.27983 9.64099,-21.40142 22.7297,9.07475 -9.64099,21.40143 z m 0,0"
       id="path20" />
    <path
       style="fill:#ffffff;stroke-width:0.74863762"
       inkscape:connector-curvature="0"
       d="m 185.96698,120.47698 9.64098,-21.401424 22.72971,9.077594 -9.64099,21.40142 z m 0,0"
       id="path22" />
    <g
       id="g290"
       transform="matrix(0.51187985,0,0,0.48723688,65.014566,11.611575)">
      <g
         id="g178">
        <path
           id="path172"
           d="m 6.605,378.629 v 32.784 c 0,9.666 7.835,17.501 17.501,17.501 h 43.241 c 9.666,0 17.501,-7.835 17.501,-17.501 v -32.784 z"
           style="fill:#6f6f6f"
           inkscape:connector-curvature="0" />
        <path
           id="path174"
           d="m 411.767,378.629 v 32.784 c 0,9.666 7.835,17.501 17.501,17.501 h 43.256 c 9.666,0 17.501,-7.835 17.501,-17.501 v -32.784 z"
           style="fill:#6f6f6f"
           inkscape:connector-curvature="0" />
        <path
           id="path176"
           d="m 490.274,141.635 c -0.248,-0.171 -14.646,-3.227 -14.957,-3.289 -10.659,-2.281 -21.457,3.243 -25.848,13.219 l -3.165,7.184 h -10.907 l 7.478,14.041 41.022,-4.934 c 13.219,-1.598 17.47,-18.851 6.377,-26.221 z"
           style="fill:#6f6f6f"
           inkscape:connector-curvature="0" />
      </g>
      <path
         id="path180"
         d="M 490.026,240.094 V 378.551 H 6.558 V 240.094 c 0,-19.254 23.102,-32.908 23.102,-32.908 3.15,-21.008 23.102,-32.551 23.102,-32.551 L 93.365,98.487 c 19.968,-36.057 54.8,-30.456 54.8,-30.456 h 200.254 c 0,0 35.002,-5.601 54.97,30.456 l 40.432,76.148 c 0,0 19.952,11.559 23.102,32.551 10e-4,0.001 23.103,13.654 23.103,32.908 z"
         style="fill:#454545"
         inkscape:connector-curvature="0" />
      <path
         id="path182"
         d="M 436.762,177.677 C 423.419,153.566 410.06,128.572 396.686,102.941 386.71,84.556 370.45,73.881 348.418,75.712 133.766,75.634 142.951,75.386 142.951,75.386 c -10.457,-0.031 -29.96,3.77 -42.822,27.462 -13.452,25.678 -26.888,50.704 -40.308,74.83 125.456,9.866 251.486,9.866 376.941,-0.001 z"
         style="fill:#168de2"
         inkscape:connector-curvature="0" />
      <path
         id="path184"
         d="M 354.206,276.865 341.08,333.93 c -2.808,12.086 -13.653,20.651 -26.081,20.651 H 181.6 c -12.428,0 -23.273,-8.58 -26.081,-20.651 l -13.126,-57.065 c -4.717,-20.651 10.861,-40.432 32.039,-40.432 h 147.735 c 21.178,-0.016 36.926,19.766 32.039,40.432 z"
         style="fill:#6f6f6f"
         inkscape:connector-curvature="0" />
      <path
         id="path186"
         d="M 135.504,239.598 44.973,224.626 c -12.133,-2.001 -23.676,6.656 -24.638,18.913 -0.031,0.295 -0.047,0.59 -0.062,0.884 -0.621,9.93 5.756,19.022 15.344,21.721 14.553,4.096 36.538,7.354 48.997,-5.104 l 34.071,0.419 z"
         style="fill:#cacaca"
         inkscape:connector-curvature="0" />
      <g
         id="g192">
        <path
           id="path188"
           d="m 125.823,329.446 c -3.041,-4.422 -7.897,-7.23 -13.234,-7.664 l -71.82,-5.772 c -14.383,-1.164 -18.897,9.775 -20.418,22.823 -1.21,10.426 6.827,19.766 17.315,19.999 l 68.965,1.536 c 6.765,0.155 9.961,-2.731 15.143,-6.594 7.68,-5.71 9.448,-16.462 4.049,-24.328 z"
           style="fill:#6f6f6f"
           inkscape:connector-curvature="0" />
        <path
           id="path190"
           d="m 50.326,158.748 -3.165,-7.184 c -4.406,-9.976 -15.189,-15.5 -25.848,-13.234 -0.31,0.062 -14.708,3.134 -14.957,3.305 -11.093,7.385 -6.842,24.623 6.377,26.221 l 41.022,4.934 7.478,-14.041 z"
           style="fill:#6f6f6f"
           inkscape:connector-curvature="0" />
      </g>
      <rect
         id="rect194"
         height="29.400999"
         width="138.287"
         style="fill:#ffffff"
         y="291.21701"
         x="179.118" />
      <circle
         id="circle196"
         r="14.864"
         cy="245.183"
         cx="43.841"
         style="fill:#e95353" />
      <path
         id="path198"
         d="m 361.126,239.598 90.531,-14.972 c 12.133,-2.001 23.676,6.656 24.638,18.913 0.016,0.295 0.047,0.59 0.062,0.884 0.621,9.93 -5.756,19.022 -15.344,21.721 -14.553,4.096 -36.538,7.354 -48.997,-5.104 l -34.071,0.419 z"
         style="fill:#cacaca"
         inkscape:connector-curvature="0" />
      <path
         id="path200"
         d="m 455.861,316.01 -71.82,5.772 c -5.337,0.434 -10.209,3.243 -13.234,7.664 -5.756,8.394 -4.686,17.827 8.161,27.4 3.181,2.374 7.059,3.615 11.031,3.522 l 68.965,-1.536 c 10.488,-0.233 18.525,-9.573 17.315,-19.999 -1.505,-13.049 -6.035,-23.987 -20.418,-22.823 z"
         style="fill:#6f6f6f"
         inkscape:connector-curvature="0" />
      <circle
         id="circle202"
         r="14.864"
         cy="245.183"
         cx="452.789"
         style="fill:#e95353" />
      <g
         id="g212">
        <path
           id="path204"
           d="m 280.695,242.065 c -9.914,0 -17.982,8.068 -17.982,17.982 0,9.914 8.068,17.998 17.982,17.998 9.914,0 17.982,-8.068 17.982,-17.998 0,-9.93 -8.068,-17.982 -17.982,-17.982 z m 0,32.271 c -7.882,0 -14.289,-6.408 -14.289,-14.305 0,-7.882 6.408,-14.289 14.289,-14.289 7.882,0 14.289,6.408 14.289,14.289 0.001,7.897 -6.407,14.305 -14.289,14.305 z"
           style="fill:#ffffff"
           inkscape:connector-curvature="0" />
        <path
           id="path206"
           d="m 259.114,242.065 c -9.914,0 -17.982,8.068 -17.982,17.982 0,9.914 8.068,17.998 17.982,17.998 9.914,0 17.982,-8.068 17.982,-17.998 0,-9.93 -8.068,-17.982 -17.982,-17.982 z m 0,32.271 c -7.882,0 -14.289,-6.408 -14.289,-14.305 0,-7.882 6.408,-14.289 14.289,-14.289 7.881,0 14.289,6.408 14.289,14.289 0,7.897 -6.408,14.305 -14.289,14.305 z"
           style="fill:#ffffff"
           inkscape:connector-curvature="0" />
        <path
           id="path208"
           d="m 237.532,242.065 c -9.914,0 -17.982,8.068 -17.982,17.982 0,9.914 8.068,17.998 17.982,17.998 9.914,0 17.982,-8.068 17.982,-17.998 0,-9.93 -8.068,-17.982 -17.982,-17.982 z m 0,32.271 c -7.882,0 -14.289,-6.408 -14.289,-14.305 0,-7.882 6.408,-14.289 14.289,-14.289 7.882,0 14.289,6.408 14.289,14.289 0.001,7.897 -6.407,14.305 -14.289,14.305 z"
           style="fill:#ffffff"
           inkscape:connector-curvature="0" />
        <path
           id="path210"
           d="m 215.95,242.065 c -9.914,0 -17.982,8.068 -17.982,17.982 0,9.914 8.068,17.998 17.982,17.998 9.914,0 17.982,-8.068 17.982,-17.998 0.001,-9.93 -8.067,-17.982 -17.982,-17.982 z m 0,32.271 c -7.882,0 -14.289,-6.408 -14.289,-14.305 0,-7.882 6.408,-14.289 14.289,-14.289 7.882,0 14.289,6.408 14.289,14.289 0.001,7.897 -6.407,14.305 -14.289,14.305 z"
           style="fill:#ffffff"
           inkscape:connector-curvature="0" />
      </g>
      <path
         id="path214"
         d="M 263.023,127.951 V 93.693 c 0,-5.477 4.53,-10.007 10.147,-10.007 h 0.822 c 5.477,-0.419 10.147,4.112 10.147,9.449 v 33.513 c 0,6.578 4.794,12.335 11.233,12.738 6.997,0.279 12.738,-5.198 12.738,-12.055 v -24.979 c 0,-5.477 4.53,-10.007 10.007,-10.007 h 0.822 c 5.896,0 10.69,4.794 10.69,10.55 v 19.239 c 0,6.439 4.934,12.335 11.373,12.614 6.858,0.403 12.738,-5.073 12.738,-11.916 v -22.125 c 0,-5.756 4.794,-10.147 10.55,-10.007 0.14,0 0.14,0 0.14,0 0.14,0 0.14,0 0.279,0 5.756,-0.14 10.55,4.251 10.55,10.007 v 24.436 c 0,6.578 4.934,12.335 11.373,12.738 6.997,0.279 12.614,-5.213 12.614,-12.055 V 107.75 c -0.853,-1.614 -1.691,-3.181 -2.544,-4.81 C 386.726,84.555 370.466,73.88 348.434,75.711 133.766,75.633 142.951,75.385 142.951,75.385 c -10.457,-0.031 -29.96,3.77 -42.822,27.462 -0.931,1.753 -1.846,3.444 -2.777,5.213 v 14.072 c 0,6.439 4.934,12.335 11.512,12.614 6.858,0.403 12.614,-5.073 12.614,-11.916 v -22.125 c 0,-5.756 4.794,-10.147 10.69,-10.007 0,0 0,0 0.14,0 0,0 0,0 0.14,0 5.741,-0.14 10.674,4.251 10.674,10.007 v 24.436 c 0,6.578 4.794,12.335 11.233,12.738 6.873,0.264 12.49,-5.042 12.676,-11.745 V 93.507 c 0,-6.858 5.71,-12.335 12.645,-12.024 6.47,0.388 11.326,6.175 11.326,12.645 v 31.17 c 0.186,6.284 4.996,11.838 11.311,12.241 6.982,0.279 12.614,-5.213 12.614,-12.055 l 0.14,-26.562 c 0,-6.858 5.616,-12.335 12.614,-12.055 6.439,0.403 11.373,6.175 11.373,12.738 v 28.75 c 0.14,6.439 5.477,11.652 11.916,11.652 6.716,-0.001 12.053,-5.478 12.053,-12.056 z"
         style="fill:#209ae5"
         inkscape:connector-curvature="0" />
      <g
         id="g216" />
      <g
         id="g218" />
      <g
         id="g220" />
      <g
         id="g222" />
      <g
         id="g224" />
      <g
         id="g226" />
      <g
         id="g228" />
      <g
         id="g230" />
      <g
         id="g232" />
      <g
         id="g234" />
      <g
         id="g236" />
      <g
         id="g238" />
      <g
         id="g240" />
      <g
         id="g242" />
      <g
         id="g244" />
    </g>
    <g
       style="fill:none"
       id="g338"
       transform="matrix(2.2713704,0,0,3.6934262,-2.526399,-218.92466)">
      <rect
         id="rect292"
         height="30"
         width="182.978"
         y="4"
         x="1.02222"
         style="fill:#282828" />
      <g
         id="g308"
         clip-path="url(#clip0-4)">
        <path
           id="path294"
           d="m 40.0744,17.5325 c -0.8271,0 -1.5001,0.6583 -1.5001,1.4675 0,0.8092 0.673,1.4675 1.5001,1.4675 0.8272,0 1.5001,-0.6583 1.5001,-1.4675 0,-0.8092 -0.6729,-1.4675 -1.5001,-1.4675 z"
           inkscape:connector-curvature="0"
           style="fill:#f34a38" />
        <path
           id="path296"
           d="m 41.0679,13.0842 v 2.6463 c 0.7704,0.2244 1.4298,0.7025 1.8767,1.3352 l 2.5729,-0.8178 c -0.875,-1.6495 -2.5107,-2.8532 -4.4496,-3.1637 z"
           inkscape:connector-curvature="0"
           style="fill:#f34a38" />
        <path
           id="path298"
           d="m 46.1329,18.0962 -2.5737,0.818 c 7e-4,0.0286 0.0023,0.0571 0.0023,0.0858 0,0.7791 -0.2689,1.4975 -0.7199,2.0725 l 1.589,2.1395 c 1.0948,-1.0835 1.7719,-2.5718 1.7719,-4.212 0,-0.3072 -0.0238,-0.609 -0.0696,-0.9038 z"
           inkscape:connector-curvature="0"
           style="fill:#f34a38" />
        <path
           id="path300"
           d="M 40.0743,6.20314 H 27.9867 c -0.5487,0 -0.9936,0.43518 -0.9936,0.97196 0,0.53677 0.4449,0.97195 0.9936,0.97195 h 5.1646 c -1.0897,0.66756 -2.0721,1.48741 -2.9158,2.42935 h -6.7531 c -0.5487,0 -0.9935,0.4352 -0.9935,0.972 0,0.5368 0.4448,0.972 0.9935,0.972 h 5.3158 c -1.1463,1.9017 -1.8051,4.1167 -1.8051,6.4796 0,2.7494 0.8912,5.2991 2.4054,7.3873 h -2.819 c -0.5487,0 -0.9936,0.4352 -0.9936,0.972 0,0.5368 0.4449,0.9719 0.9936,0.9719 h 4.5532 c 0.6195,0.5685 1.2954,1.0786 2.0186,1.5217 h -9.5664 c -0.5487,0 -0.9935,0.4351 -0.9935,0.9719 0,0.5368 0.4448,0.972 0.9935,0.972 h 16.4894 c 7.2131,0 13.0813,-5.7407 13.0813,-12.7969 0,-7.0561 -5.8682,-12.79676 -13.0813,-12.79676 z m 4.8263,19.17536 c -0.0182,0.0151 -0.0364,0.0304 -0.0561,0.0443 -0.0221,0.0157 -0.0448,0.0304 -0.0678,0.0441 -1.3275,0.9265 -2.951,1.4721 -4.7024,1.4721 -1.7513,0 -3.3747,-0.5456 -4.7023,-1.4721 C 35.349,25.4532 35.3263,25.4385 35.3042,25.4228 35.2845,25.4088 35.2664,25.3935 35.248,25.3785 33.2538,23.9307 31.9589,21.6106 31.9589,19 c 0,-4.3776 3.6406,-7.9391 8.1154,-7.9391 4.4749,0 8.1155,3.5615 8.1155,7.9391 0,2.6106 -1.2949,4.9307 -3.2892,6.3785 z"
           inkscape:connector-curvature="0"
           style="fill:#f34a38" />
        <path
           id="path302"
           d="m 34.631,16.2478 2.5728,0.8179 c 0.447,-0.6327 1.1064,-1.1108 1.8768,-1.3352 v -2.6463 c -1.9388,0.3105 -3.5745,1.5141 -4.4496,3.1636 z"
           inkscape:connector-curvature="0"
           style="fill:#f34a38" />
        <path
           id="path304"
           d="m 41.2352,22.2165 c -0.3633,0.1259 -0.7538,0.195 -1.1607,0.195 -0.4068,0 -0.7974,-0.0691 -1.1608,-0.195 l -1.5894,2.14 c 0.8276,0.4082 1.7618,0.6386 2.7502,0.6386 0.9883,0 1.9226,-0.2304 2.7501,-0.6386 z"
           inkscape:connector-curvature="0"
           style="fill:#f34a38" />
        <path
           id="path306"
           d="m 36.587,19 c 0,-0.0287 0.0015,-0.0572 0.0022,-0.0858 l -2.5737,-0.818 C 33.9698,18.391 33.9459,18.6928 33.9459,19 c 0,1.6402 0.6771,3.1285 1.772,4.2121 l 1.589,-2.1396 C 36.856,20.4976 36.587,19.7791 36.587,19 Z"
           inkscape:connector-curvature="0"
           style="fill:#f34a38" />
      </g>
      <path
         id="path310"
         d="M 12.0142,21.9341 H 6.16943 V 32 H 2.87109 V 7.11719 h 8.23731 c 2.8027,0 4.9561,0.63802 6.46,1.91406 1.5153,1.27605 2.2729,3.13315 2.2729,5.57125 0,1.5495 -0.4215,2.8996 -1.2646,4.0503 -0.8317,1.1507 -1.9939,2.0109 -3.4864,2.5806 l 5.8448,10.5615 V 32 H 17.4146 Z M 6.16943,19.251 h 5.04147 c 1.6293,0 2.9224,-0.4216 3.8794,-1.2647 0.9685,-0.8431 1.4527,-1.971 1.4527,-3.3838 0,-1.538 -0.4615,-2.7172 -1.3843,-3.5376 C 14.2472,10.2446 12.9256,9.82878 11.1938,9.81738 H 6.16943 Z"
         inkscape:connector-curvature="0"
         style="fill:#f34a38" />
      <path
         id="path312"
         d="M 59.1104,32 V 7.11719 h 7.0239 c 2.1647,0 4.0788,0.47851 5.7422,1.43554 1.6634,0.95704 2.9451,2.31857 3.8452,4.08447 0.9114,1.766 1.3729,3.794 1.3843,6.084 v 1.5893 c 0,2.3471 -0.4558,4.4035 -1.3672,6.1695 -0.9001,1.7659 -2.1932,3.1217 -3.8794,4.0674 C 70.1846,31.493 68.2306,31.9772 65.9976,32 Z M 62.3916,9.81738 V 29.3169 h 3.4522 c 2.5292,0 4.4946,-0.7861 5.8959,-2.3584 1.4128,-1.5723 2.1192,-3.811 2.1192,-6.7163 v -1.4526 c 0,-2.8256 -0.6665,-5.0188 -1.9995,-6.5796 C 70.5378,10.6377 68.6579,9.84017 66.2197,9.81738 Z M 85.5996,32 H 82.3184 V 7.11719 h 3.2812 z m 8.4766,-2.6831 H 108.312 V 32 H 90.1968 V 29.5391 L 103.834,9.81738 H 90.4189 V 7.11719 h 17.3461 v 2.40967 z m 36.3498,-5.2124 c -0.307,2.6318 -1.281,4.6655 -2.922,6.1011 -1.629,1.4241 -3.8,2.1362 -6.511,2.1362 -2.94,0 -5.298,-1.0539 -7.076,-3.1616 -1.765,-2.1078 -2.648,-4.9276 -2.648,-8.4595 v -2.3926 c 0,-2.3128 0.41,-4.3465 1.23,-6.101 0.832,-1.7546 2.005,-3.09901 3.521,-4.03325 1.515,-0.94564 3.269,-1.41846 5.263,-1.41846 2.643,0 4.763,0.74056 6.358,2.22168 1.595,1.46973 2.523,3.50913 2.785,6.11813 h -3.298 c -0.285,-1.9824 -0.906,-3.4179 -1.863,-4.3066 -0.946,-0.88868 -2.273,-1.33301 -3.982,-1.33301 -2.096,0 -3.742,0.77471 -4.939,2.32421 -1.185,1.5495 -1.777,3.7541 -1.777,6.6138 v 2.4096 c 0,2.7002 0.564,4.8479 1.692,6.4429 1.128,1.5951 2.706,2.3926 4.734,2.3926 1.823,0 3.218,-0.4102 4.187,-1.2305 0.98,-0.8317 1.629,-2.2729 1.948,-4.3237 z m 18.235,1.4014 H 138.236 L 135.895,32 h -3.384 l 9.502,-24.88281 h 2.871 L 154.403,32 h -3.366 z m -9.433,-2.7002 h 8.459 l -4.238,-11.6382 z m 27.651,-0.8716 h -5.845 V 32 h -3.298 V 7.11719 h 8.237 c 2.803,0 4.956,0.63802 6.46,1.91406 1.515,1.27605 2.273,3.13315 2.273,5.57125 0,1.5495 -0.421,2.8996 -1.265,4.0503 -0.831,1.1507 -1.993,2.0109 -3.486,2.5806 L 175.8,31.7949 V 32 h -3.521 z m -5.845,-2.6831 h 5.042 c 1.629,0 2.922,-0.4216 3.879,-1.2647 0.969,-0.8431 1.453,-1.971 1.453,-3.3838 0,-1.538 -0.462,-2.7172 -1.385,-3.5376 -0.911,-0.8203 -2.233,-1.23612 -3.964,-1.24752 h -5.025 z"
         inkscape:connector-curvature="0"
         style="fill:#f34a38" />
    </g>
  </g>
</svg>
