<?xml version="1.0" encoding="UTF-8" standalone="no"?>
<!-- Created with Inkscape (http://www.inkscape.org/) -->

<svg
   xmlns:dc="http://purl.org/dc/elements/1.1/"
   xmlns:cc="http://creativecommons.org/ns#"
   xmlns:rdf="http://www.w3.org/1999/02/22-rdf-syntax-ns#"
   xmlns:svg="http://www.w3.org/2000/svg"
   xmlns="http://www.w3.org/2000/svg"
   xmlns:sodipodi="http://sodipodi.sourceforge.net/DTD/sodipodi-0.dtd"
   xmlns:inkscape="http://www.inkscape.org/namespaces/inkscape"
   width="400mm"
   height="400mm"
   viewBox="0 0 400 400"
   version="1.1"
   id="svg8"
   inkscape:version="0.92.3 (2405546, 2018-03-11)"
   sodipodi:docname="logoHome.svg">
  <defs
     id="defs2">
    <clipPath
       id="clip0">
      <rect
         id="rect3757"
         fill="white"
         height="140"
         width="200" />
    </clipPath>
    <clipPath
       id="clip0-6">
      <rect
         id="rect3816"
         transform="translate(22.4889 4)"
         fill="white"
         height="30"
         width="30.6667" />
    </clipPath>
  </defs>
  <sodipodi:namedview
     id="base"
     pagecolor="#ffffff"
     bordercolor="#666666"
     borderopacity="1.0"
     inkscape:pageopacity="0.0"
     inkscape:pageshadow="2"
     inkscape:zoom="0.30009766"
     inkscape:cx="575.45154"
     inkscape:cy="979.87625"
     inkscape:document-units="mm"
     inkscape:current-layer="layer1"
     showgrid="false"
     inkscape:window-width="1920"
     inkscape:window-height="1027"
     inkscape:window-x="1912"
     inkscape:window-y="102"
     inkscape:window-maximized="1" />
  <metadata
     id="metadata5">
    <rdf:RDF>
      <cc:Work
         rdf:about="">
        <dc:format>image/svg+xml</dc:format>
        <dc:type
           rdf:resource="http://purl.org/dc/dcmitype/StillImage" />
        <dc:title></dc:title>
      </cc:Work>
    </rdf:RDF>
  </metadata>
  <g
     inkscape:label="Camada 1"
     inkscape:groupmode="layer"
     id="layer1"
     transform="translate(0,103)">
    <g
       id="g3877">
      <g
         transform="matrix(1.9882236,0,0,1.9271374,0.87304304,18.390202)"
         id="g3792"
         style="fill:none">
        <g
           clip-path="url(#clip0)"
           id="g3755">
          <path
             style="fill:#000000"
             inkscape:connector-curvature="0"
             d="m 163.126,58.3533 c -2.213,-0.6441 -4.519,0.6589 -5.152,2.9089 -0.633,2.25 0.648,4.5959 2.86,5.2391 19.019,5.5314 30.833,13.5545 30.833,20.9381 0,5.4034 -6.463,11.3345 -17.73,16.2726 -12.397,5.432 -29.983,9.407 -49.538,11.197 l -17.068,-0.235 c -0.02,0 -0.039,-0.001 -0.058,-0.001 -2.275,0 -4.134,1.86 -4.165,4.18 -0.032,2.34 1.809,4.263 4.109,4.295 l 17.283,0.238 c 0.019,0 0.038,0 0.057,0 0.124,0 0.247,-0.005 0.37,-0.016 20.498,-1.859 39.075,-6.076 52.308,-11.875 C 196.05,103.249 200,93.862 200,87.4394 200,75.5989 186.904,65.2691 163.126,58.3533 Z"
             id="path3713" />
          <path
             style="fill:#000000"
             inkscape:connector-curvature="0"
             d="m 76.1904,98.5285 c -1.4862,-1.7865 -4.1154,-2.0098 -5.8721,-0.4983 -1.7571,1.5115 -1.9762,4.1848 -0.4904,5.9718 l 9.3192,11.204 C 59.4821,113.68 41.6717,110.015 28.5762,104.76 15.7117,99.5976 8.33333,93.2848 8.33333,87.4394 c 0,-6.7875 9.88997,-14.102 26.45537,-19.5665 2.1892,-0.722 3.388,-3.1119 2.678,-5.3382 -0.7096,-2.2259 -3.0605,-3.445 -5.2488,-2.7234 C 22.5808,62.9902 14.9387,66.772 9.50333,71.0514 3.1975,76.0175 0,81.5308 0,87.4394 c 0,9.79 8.82417,18.5046 25.5175,25.2036 13.5683,5.445 31.7612,9.267 51.7608,10.915 l -8.31,9.366 c -1.5416,1.737 -1.4066,4.417 0.3021,5.984 0.7967,0.732 1.795,1.092 2.79,1.092 1.1379,0 2.2721,-0.472 3.0946,-1.399 l 15.1613,-17.087 c 0.6908,-0.778 1.0733,-1.79 1.0733,-2.839 v -0.323 c 0,-1.002 -0.3492,-1.972 -0.9854,-2.737 z"
             id="path3715" />
          <path
             style="fill:#e95353"
             inkscape:connector-curvature="0"
             d="m 155.456,50.9551 c -0.172,-3.5236 -1.458,-6.8991 -3.573,-9.6995 -4.767,-6.3168 -5.697,-11.3317 -5.697,-11.3317 -3.743,-9.9815 -7.071,-16.6322 -9.517,-20.85321 -2.573,-4.4326 -7.024,-7.41835 -12.043,-8.074842 -10.092,-1.327797 -41.6363,-1.327797 -51.7291,0 -5.0155,0.660312 -9.466,3.646062 -12.0395,8.074842 -2.4458,4.22101 -5.7698,10.87171 -9.517,20.85321 0,0 -0.9294,5.0149 -5.697,11.3317 -2.1104,2.8004 -3.4009,6.1759 -3.5684,9.6995 -0.3608,7.6448 1.8153,9.325 3.7617,26.6248 0.1532,1.3613 1.283,2.385 2.6317,2.385 H 149.066 c 1.349,0 2.479,-1.0275 2.632,-2.385 0.546,-4.8517 2.169,-14.6923 2.169,-14.6923 1.421,-4.8923 1.731,-8.8798 1.589,-11.9325 z"
             id="path3717" />
          <path
             style="fill:#168de2"
             inkscape:connector-curvature="0"
             d="m 144.068,29.5234 c -2.952,-7.5185 -5.963,-14.0839 -8.959,-19.3176 -2.271,-3.95781 -6.276,-6.72099 -10.709,-7.32559 -10.115,-1.3651 -41.2242,-1.35386 -51.2663,0 -4.4322,0.6046 -8.4382,3.36802 -10.709,7.32559 -3.0363,5.3004 -6.0871,11.9547 -8.9957,19.3176 30.1657,2.4146 60.47,2.4146 90.639,0 z"
             id="path3719" />
          <path
             style="fill:#ffffff"
             inkscape:connector-curvature="0"
             d="m 139.786,38.2177 c -1.152,0.3672 -2.224,0.8829 -3.12,1.3947 -1.633,0.9274 -3.31,1.7916 -5.06,2.4668 -2.901,1.1202 -3.393,2.793 -3.393,2.793 -0.088,0.115 -0.171,0.23 -0.252,0.3486 -2.201,3.3271 0.689,7.7559 4.593,7.1922 5.646,-0.8124 10.297,-2.4778 12.659,-3.4422 1.352,-0.5527 2.409,-1.7024 2.755,-3.1454 0.033,-0.1372 0.062,-0.2745 0.088,-0.4081 0.867,-4.7625 -3.725,-8.6424 -8.27,-7.1996 z"
             id="path3721" />
          <path
             style="fill:#ffe21f"
             inkscape:connector-curvature="0"
             d="m 145.818,64.876 h -6.28 c -0.944,0 -1.418,1.1609 -0.751,1.8434 l 6.28,6.3911 c 0.667,0.6787 1.812,0.1965 1.812,-0.7641 v -6.391 c 0,-0.5972 -0.474,-1.0794 -1.061,-1.0794 z"
             id="path3723" />
          <path
             style="fill:#454545"
             inkscape:connector-curvature="0"
             d="m 151.697,77.5725 c -0.153,1.3651 -1.286,2.3924 -2.635,2.3924 h -12.083 v 7.1365 c 0,2.526 2.012,4.5772 4.498,4.5772 h 7.589 c 2.482,0 4.498,-2.0474 4.498,-4.5772 V 64.7607 c -0.5,3.0936 -1.469,9.2769 -1.867,12.8118 z"
             id="path3725" />
          <path
             style="fill:#ed6262"
             inkscape:connector-curvature="0"
             d="m 156.997,24.5271 c -0.364,-1.6618 -1.899,-2.7893 -3.572,-2.7893 h -3.032 c -1.943,0 -3.518,1.6025 -3.518,3.5794 v 2.1994 h -1.607 l 0.922,2.2294 h 3.536 c 1.829,0 3.641,-0.4007 5.303,-1.1758 1.498,-0.6973 2.336,-2.3665 1.968,-4.0431 z"
             id="path3727" />
          <path
             style="fill:#ffbd49"
             inkscape:connector-curvature="0"
             d="m 141.776,48.4812 c 2.442,0 4.421,-2.0144 4.421,-4.4993 0,-2.4849 -1.979,-4.4993 -4.421,-4.4993 -2.442,0 -4.422,2.0144 -4.422,4.4993 0,2.4849 1.98,4.4993 4.422,4.4993 z"
             id="path3729" />
          <path
             style="fill:#ffdb6f"
             inkscape:connector-curvature="0"
             d="m 132.882,50.8366 c 1.794,0 3.248,-1.4797 3.248,-3.305 0,-1.8252 -1.454,-3.3049 -3.248,-3.3049 -1.794,0 -3.248,1.4797 -3.248,3.3049 0,1.8253 1.454,3.305 3.248,3.305 z"
             id="path3731" />
          <path
             style="fill:#6f6f6f"
             inkscape:connector-curvature="0"
             d="m 73.0644,47.5355 h 51.4016 l -5.078,8.9983 H 78.1419 Z"
             id="path3733" />
          <path
             style="fill:#ffffff"
             inkscape:connector-curvature="0"
             d="m 69.5654,45.2208 c -0.0766,-0.1186 -0.1605,-0.2336 -0.2517,-0.3486 0,0 -0.4921,-1.6728 -3.3935,-2.793 -1.7495,-0.6752 -3.4227,-1.5394 -5.0592,-2.4668 -0.9003,-0.5118 -1.9683,-1.0275 -3.1201,-1.3947 -4.5417,-1.4466 -9.1379,2.4368 -8.274,7.1996 0.0256,0.1372 0.0547,0.2709 0.0838,0.4081 0.3463,1.4428 1.4033,2.5927 2.7555,3.1454 2.362,0.9644 7.0129,2.6298 12.6627,3.4422 3.9074,0.5637 6.798,-3.8651 4.5965,-7.1922 z"
             id="path3735" />
          <path
             style="fill:#ffe21f"
             inkscape:connector-curvature="0"
             d="m 57.9925,64.876 h -6.2804 c -0.5869,0 -1.0607,0.4822 -1.0607,1.0794 v 6.391 c 0,0.9606 1.1445,1.4428 1.8115,0.7641 l 6.2804,-6.3911 c 0.667,-0.6787 0.1931,-1.8434 -0.7508,-1.8434 z"
             id="path3737" />
          <path
             style="fill:#777777"
             inkscape:connector-curvature="0"
             d="M 140.58,76.0295 C 134.041,64.5162 126.522,64.876 126.522,64.876 H 71.005 c 0,0 -7.5159,-0.3598 -14.0587,11.1535 H 45.6434 l 0.1386,1.4837 c 0.1275,1.3948 1.2721,2.4519 2.6425,2.4519 H 149.106 c 1.371,0 2.515,-1.0571 2.643,-2.4516 l 0.138,-1.4837 z"
             id="path3739" />
          <path
             style="fill:#454545"
             inkscape:connector-curvature="0"
             d="m 48.4682,79.9687 c -1.3488,0 -2.4823,-1.0311 -2.6352,-2.3924 -0.3973,-3.5349 -1.3706,-9.7218 -1.8663,-12.8115 v 22.3406 c 0,2.526 2.0119,4.5773 4.4979,4.5773 h 7.5888 c 2.4822,0 4.4979,-2.0474 4.4979,-4.5773 V 79.9689 H 48.4682 Z"
             id="path3741" />
          <path
             style="fill:#ed6262"
             inkscape:connector-curvature="0"
             d="m 50.6514,27.5166 v -2.1994 c 0,-1.9771 -1.5748,-3.5794 -3.5139,-3.5794 H 44.105 c -1.6729,0 -3.2075,1.1277 -3.5721,2.7893 -0.3681,1.6727 0.4739,3.3458 1.9683,4.0393 1.6656,0.7753 3.4737,1.1758 5.3035,1.1758 h 3.5357 l 0.9221,-2.2294 h -1.6111 z"
             id="path3743" />
          <path
             style="fill:#ffbd49"
             inkscape:connector-curvature="0"
             d="m 55.7508,48.4812 c 2.4418,0 4.4213,-2.0144 4.4213,-4.4993 0,-2.4849 -1.9795,-4.4993 -4.4213,-4.4993 -2.4419,0 -4.4214,2.0144 -4.4214,4.4993 0,2.4849 1.9795,4.4993 4.4214,4.4993 z"
             id="path3745" />
          <path
             style="fill:#ffdb6f"
             inkscape:connector-curvature="0"
             d="m 64.6518,50.8366 c 1.7936,0 3.2477,-1.4797 3.2477,-3.305 0,-1.8252 -1.4541,-3.3049 -3.2477,-3.3049 -1.7937,0 -3.2477,1.4797 -3.2477,3.3049 0,1.8253 1.454,3.305 3.2477,3.305 z"
             id="path3747" />
          <path
             style="fill:#6f6f6f"
             inkscape:connector-curvature="0"
             d="M 122.272,68.025 H 75.2586 c -0.7362,0 -1.3304,0.6082 -1.3304,1.3538 0,0.7493 0.5942,1.3539 1.3304,1.3539 h 47.0094 c 0.736,0 1.33,-0.6082 1.33,-1.3539 0.004,-0.7492 -0.594,-1.3538 -1.326,-1.3538 z"
             id="path3749" />
          <path
             style="fill:#6f6f6f"
             inkscape:connector-curvature="0"
             d="M 122.272,73.4294 H 75.2586 c -0.7362,0 -1.3304,0.6082 -1.3304,1.3539 0,0.7492 0.5942,1.3538 1.3304,1.3538 h 47.0094 c 0.736,0 1.33,-0.6082 1.33,-1.3538 0.004,-0.7493 -0.594,-1.3539 -1.326,-1.3539 z"
             id="path3751" />
          <path
             style="fill:#3aa2eb"
             inkscape:connector-curvature="0"
             d="m 139.141,18.0545 v 0.4635 c 0,1.8657 -1.506,3.3606 -3.376,3.2827 -1.724,-0.1112 -3.043,-1.6802 -3.043,-3.4718 v -6.6543 c 0,-1.569 -1.283,-2.76337 -2.825,-2.72249 -0.036,0 -0.036,0 -0.073,0 0,0 0,0 -0.036,0 -1.542,-0.03706 -2.825,1.15729 -2.825,2.72249 v 6.0201 c 0,1.8657 -1.578,3.3606 -3.412,3.2456 -1.724,-0.0741 -3.043,-1.6802 -3.043,-3.4347 v -5.2338 c 0,-1.569 -1.283,-2.87454 -2.861,-2.87454 h -0.219 c -1.469,0 -2.679,1.23144 -2.679,2.72634 V 18.93 c 0,1.8657 -1.542,3.3567 -3.412,3.2826 -1.724,-0.1111 -3.007,-1.6802 -3.007,-3.4718 V 9.61601 c 0,-1.45403 -1.247,-2.68548 -2.716,-2.57431 h -0.218 c -1.506,0 -2.712,1.23145 -2.712,2.72636 v 9.32874 c 0,1.7916 -1.429,3.2827 -3.2259,3.2827 -1.7242,0 -3.153,-1.417 -3.1894,-3.1713 v -7.83 c 0,-1.7916 -1.3194,-3.35679 -3.0436,-3.47179 -1.8698,-0.07411 -3.3752,1.41697 -3.3752,3.28269 l -0.0364,7.2331 c 0,1.8657 -1.5017,3.3568 -3.3752,3.2826 C 84.747,21.5973 83.464,20.0839 83.4128,18.3703 V 9.88305 c 0,-1.76195 -1.3013,-3.33838 -3.0327,-3.44214 -1.8552,-0.08152 -3.3863,1.40574 -3.3863,3.27527 v 8.89102 c -0.0509,1.8212 -1.5526,3.2715 -3.3935,3.1973 -1.7242,-0.1111 -3.0071,-1.6801 -3.0071,-3.4717 v -6.6582 c 0,-1.569 -1.3194,-2.76337 -2.8612,-2.72249 -0.0365,0 -0.0365,0 -0.0365,0 -0.0364,0 -0.0364,0 -0.0364,0 -1.5782,-0.03706 -2.8612,1.15729 -2.8612,2.72249 v 6.0201 c 0,1.8657 -1.5418,3.3606 -3.3752,3.2456 -1.5966,-0.0631 -2.7849,-1.4206 -2.9888,-2.9934 -1.695,3.5719 -3.3752,7.4406 -5.0082,11.5727 30.1657,2.4184 60.4733,2.4184 90.6393,0 -1.626,-4.1431 -3.273,-7.9637 -4.924,-11.4651 z"
             id="path3753" />
        </g>
      </g>
      <g
         transform="matrix(2.1633423,0,0,3.8361061,5.3217888,-116.41405)"
         id="g3840"
         style="fill:none">
        <rect
           style="fill:#ffffff"
           x="1.02222"
           y="4"
           width="182.978"
           height="30"
           id="rect3794" />
        <g
           clip-path="url(#clip0-6)"
           id="g3810">
          <path
             style="fill:#f34a38"
             inkscape:connector-curvature="0"
             d="m 40.0744,17.5325 c -0.8272,0 -1.5001,0.6583 -1.5001,1.4675 0,0.8092 0.6729,1.4675 1.5001,1.4675 0.8272,0 1.5001,-0.6583 1.5001,-1.4675 0,-0.8092 -0.6729,-1.4675 -1.5001,-1.4675 z"
             id="path3796" />
          <path
             style="fill:#f34a38"
             inkscape:connector-curvature="0"
             d="m 41.0679,13.0842 v 2.6463 c 0.7704,0.2244 1.4298,0.7025 1.8767,1.3352 l 2.5729,-0.8178 c -0.875,-1.6495 -2.5107,-2.8532 -4.4496,-3.1637 z"
             id="path3798" />
          <path
             style="fill:#f34a38"
             inkscape:connector-curvature="0"
             d="m 46.1329,18.0962 -2.5737,0.818 c 7e-4,0.0286 0.0023,0.0571 0.0023,0.0858 0,0.7791 -0.2689,1.4975 -0.7199,2.0725 l 1.589,2.1395 c 1.0948,-1.0835 1.7719,-2.5718 1.7719,-4.212 0,-0.3072 -0.0238,-0.609 -0.0696,-0.9038 z"
             id="path3800" />
          <path
             style="fill:#f34a38"
             inkscape:connector-curvature="0"
             d="M 40.0743,6.20312 H 27.9867 c -0.5487,0 -0.9936,0.43518 -0.9936,0.97196 0,0.53678 0.4449,0.97196 0.9936,0.97196 h 5.1646 c -1.0897,0.66756 -2.0721,1.4874 -2.9158,2.42926 h -6.7531 c -0.5487,10e-5 -0.9935,0.4353 -0.9935,0.9721 0,0.5368 0.4448,0.972 0.9935,0.972 h 5.3158 c -1.1463,1.9017 -1.8051,4.1167 -1.8051,6.4796 0,2.7494 0.8912,5.2991 2.4054,7.3873 h -2.819 c -0.5487,0 -0.9936,0.4352 -0.9936,0.972 0,0.5367 0.4449,0.9719 0.9936,0.9719 h 4.5532 c 0.6195,0.5685 1.2954,1.0786 2.0186,1.5216 h -9.5664 c -0.5487,0 -0.9935,0.4352 -0.9935,0.972 0,0.5368 0.4448,0.972 0.9935,0.972 h 16.4894 c 7.2131,0 13.0813,-5.7407 13.0813,-12.7969 0,-7.0562 -5.8682,-12.79678 -13.0813,-12.79678 z m 4.8263,19.17538 c -0.0182,0.0151 -0.0364,0.0304 -0.0561,0.0442 -0.0221,0.0158 -0.0448,0.0305 -0.0678,0.0442 -1.3275,0.9265 -2.951,1.4721 -4.7024,1.4721 -1.7513,0 -3.3747,-0.5456 -4.7023,-1.4721 C 35.349,25.4532 35.3263,25.4385 35.3042,25.4227 35.2845,25.4087 35.2664,25.3935 35.248,25.3785 33.2538,23.9306 31.9589,21.6106 31.9589,19 c 0,-4.3776 3.6406,-7.9391 8.1154,-7.9391 4.4749,0 8.1155,3.5615 8.1155,7.9391 0,2.6106 -1.2949,4.9306 -3.2892,6.3785 z"
             id="path3802" />
          <path
             style="fill:#f34a38"
             inkscape:connector-curvature="0"
             d="m 34.6309,16.2478 2.5729,0.8179 c 0.447,-0.6327 1.1064,-1.1108 1.8767,-1.3353 v -2.6462 c -1.9388,0.3105 -3.5745,1.5141 -4.4496,3.1636 z"
             id="path3804" />
          <path
             style="fill:#f34a38"
             inkscape:connector-curvature="0"
             d="m 41.2352,22.2165 c -0.3634,0.1259 -0.7538,0.195 -1.1608,0.195 -0.4068,0 -0.7974,-0.0691 -1.1607,-0.195 l -1.5894,2.14 c 0.8275,0.4082 1.7618,0.6386 2.7501,0.6386 0.9884,0 1.9226,-0.2304 2.7502,-0.6386 z"
             id="path3806" />
          <path
             style="fill:#f34a38"
             inkscape:connector-curvature="0"
             d="m 36.587,19 c 0,-0.0287 0.0014,-0.0572 0.0021,-0.0858 l -2.5736,-0.818 C 33.9697,18.391 33.9459,18.6928 33.9459,19 c 0,1.6402 0.6771,3.1285 1.7719,4.2121 l 1.5891,-2.1396 C 36.8559,20.4976 36.587,19.7791 36.587,19 Z"
             id="path3808" />
        </g>
        <path
           style="fill:#f34a38"
           inkscape:connector-curvature="0"
           d="M 12.0142,21.9341 H 6.16943 V 32 H 2.87109 V 7.11719 h 8.23731 c 2.8027,0 4.9561,0.63802 6.46,1.91406 1.5153,1.27605 2.2729,3.13315 2.2729,5.57125 0,1.5495 -0.4215,2.8996 -1.2646,4.0503 -0.8317,1.1507 -1.9939,2.0109 -3.4864,2.5806 l 5.8448,10.5615 V 32 H 17.4146 Z M 6.16943,19.251 h 5.04147 c 1.6293,0 2.9224,-0.4216 3.8794,-1.2647 0.9685,-0.8431 1.4527,-1.971 1.4527,-3.3838 0,-1.538 -0.4615,-2.7172 -1.3843,-3.5376 C 14.2472,10.2446 12.9256,9.82878 11.1938,9.81738 H 6.16943 Z"
           id="path3812" />
        <path
           style="fill:#f34a38"
           inkscape:connector-curvature="0"
           d="M 59.1104,32 V 7.11719 h 7.0239 c 2.1648,0 4.0788,0.47851 5.7422,1.43554 1.6634,0.95704 2.9452,2.31857 3.8452,4.08447 0.9115,1.766 1.3729,3.794 1.3843,6.084 v 1.5893 c 0,2.3471 -0.4557,4.4035 -1.3672,6.1695 -0.9,1.7659 -2.1932,3.1217 -3.8794,4.0674 C 70.1846,31.493 68.2307,31.9772 65.9976,32 Z M 62.3917,9.81738 V 29.3169 h 3.4521 c 2.5293,0 4.4946,-0.7861 5.896,-2.3584 1.4128,-1.5723 2.1191,-3.811 2.1191,-6.7163 v -1.4526 c 0,-2.8256 -0.6665,-5.0188 -1.9995,-6.5796 C 70.5378,10.6377 68.6579,9.84017 66.2198,9.81738 Z M 85.5997,32 H 82.3184 V 7.11719 h 3.2813 z m 8.4765,-2.6831 H 108.312 V 32 H 90.1968 V 29.5391 L 103.835,9.81738 H 90.419 V 7.11719 h 17.346 v 2.40967 z m 36.3498,-5.2124 c -0.307,2.6318 -1.281,4.6655 -2.922,6.1011 -1.629,1.4241 -3.8,2.1362 -6.511,2.1362 -2.94,0 -5.298,-1.0539 -7.075,-3.1616 -1.766,-2.1078 -2.649,-4.9276 -2.649,-8.4595 v -2.3926 c 0,-2.3128 0.41,-4.3465 1.23,-6.101 0.832,-1.7546 2.005,-3.09901 3.521,-4.03325 1.515,-0.94564 3.269,-1.41846 5.263,-1.41846 2.643,0 4.763,0.74056 6.358,2.22168 1.595,1.46973 2.523,3.50913 2.785,6.11813 h -3.298 c -0.285,-1.9824 -0.906,-3.4179 -1.863,-4.3066 -0.945,-0.88868 -2.273,-1.33301 -3.982,-1.33301 -2.096,0 -3.742,0.77471 -4.939,2.32421 -1.185,1.5495 -1.777,3.7541 -1.777,6.6138 v 2.4096 c 0,2.7002 0.564,4.8479 1.692,6.4429 1.128,1.5951 2.706,2.3926 4.734,2.3926 1.823,0 3.218,-0.4102 4.187,-1.2305 0.98,-0.8317 1.629,-2.2729 1.948,-4.3237 z m 18.235,1.4014 H 138.236 L 135.895,32 h -3.384 l 9.502,-24.88281 h 2.871 L 154.403,32 h -3.366 z m -9.433,-2.7002 h 8.459 l -4.238,-11.6382 z m 27.651,-0.8716 h -5.845 V 32 h -3.298 V 7.11719 h 8.237 c 2.803,0 4.956,0.63802 6.46,1.91406 1.515,1.27605 2.273,3.13315 2.273,5.57125 0,1.5495 -0.421,2.8996 -1.265,4.0503 -0.831,1.1507 -1.993,2.0109 -3.486,2.5806 L 175.8,31.7949 V 32 h -3.521 z m -5.845,-2.6831 h 5.042 c 1.629,0 2.922,-0.4216 3.879,-1.2647 0.969,-0.8431 1.453,-1.971 1.453,-3.3838 0,-1.538 -0.462,-2.7172 -1.385,-3.5376 -0.911,-0.8203 -2.233,-1.23612 -3.964,-1.24752 h -5.025 z"
           id="path3814" />
      </g>
    </g>
  </g>
</svg>
