<svg width="184" height="41" viewBox="0 0 184 41" fill="none" xmlns="http://www.w3.org/2000/svg">
<rect x="1.02222" y="4" width="182.978" height="30" fill="#282828"/>
<g clip-path="url(#clip0)">
<path d="M40.0744 17.5325C39.2473 17.5325 38.5743 18.1908 38.5743 19C38.5743 19.8092 39.2473 20.4675 40.0744 20.4675C40.9016 20.4675 41.5745 19.8092 41.5745 19C41.5745 18.1908 40.9016 17.5325 40.0744 17.5325Z" fill="#F34A38"/>
<path d="M41.0679 13.0842V15.7305C41.8383 15.9549 42.4977 16.433 42.9446 17.0657L45.5175 16.2479C44.6425 14.5984 43.0068 13.3947 41.0679 13.0842Z" fill="#F34A38"/>
<path d="M46.1329 18.0962L43.5592 18.9142C43.5599 18.9428 43.5615 18.9713 43.5615 19C43.5615 19.7791 43.2926 20.4975 42.8416 21.0725L44.4306 23.212C45.5254 22.1285 46.2025 20.6402 46.2025 19C46.2025 18.6928 46.1787 18.391 46.1329 18.0962Z" fill="#F34A38"/>
<path d="M40.0743 6.20312H27.9867C27.438 6.20312 26.9931 6.6383 26.9931 7.17508C26.9931 7.71186 27.438 8.14704 27.9867 8.14704H33.1513C32.0616 8.8146 31.0792 9.63444 30.2355 10.5763H23.4824C22.9337 10.5764 22.4889 11.0116 22.4889 11.5484C22.4889 12.0852 22.9337 12.5204 23.4824 12.5204H28.7982C27.6519 14.4221 26.9931 16.6371 26.9931 19C26.9931 21.7494 27.8843 24.2991 29.3985 26.3873H26.5795C26.0308 26.3873 25.5859 26.8225 25.5859 27.3593C25.5859 27.896 26.0308 28.3312 26.5795 28.3312H31.1327C31.7522 28.8997 32.4281 29.4098 33.1513 29.8528H23.5849C23.0362 29.8528 22.5914 30.288 22.5914 30.8248C22.5914 31.3616 23.0362 31.7968 23.5849 31.7968H40.0743C47.2874 31.7968 53.1556 26.0561 53.1556 18.9999C53.1556 11.9437 47.2874 6.20312 40.0743 6.20312ZM44.9006 25.3785C44.8824 25.3936 44.8642 25.4089 44.8445 25.4227C44.8224 25.4385 44.7997 25.4532 44.7767 25.4669C43.4492 26.3934 41.8257 26.939 40.0743 26.939C38.323 26.939 36.6996 26.3934 35.372 25.4669C35.349 25.4532 35.3263 25.4385 35.3042 25.4227C35.2845 25.4087 35.2664 25.3935 35.248 25.3785C33.2538 23.9306 31.9589 21.6106 31.9589 19C31.9589 14.6224 35.5995 11.0609 40.0743 11.0609C44.5492 11.0609 48.1898 14.6224 48.1898 19C48.1898 21.6106 46.8949 23.9306 44.9006 25.3785Z" fill="#F34A38"/>
<path d="M34.631 16.2478L37.2038 17.0657C37.6508 16.433 38.3102 15.9549 39.0806 15.7304V13.0842C37.1418 13.3947 35.5061 14.5983 34.631 16.2478Z" fill="#F34A38"/>
<path d="M41.2352 22.2165C40.8719 22.3424 40.4814 22.4115 40.0745 22.4115C39.6677 22.4115 39.2771 22.3424 38.9137 22.2165L37.3243 24.3565C38.1519 24.7647 39.0861 24.9951 40.0745 24.9951C41.0628 24.9951 41.9971 24.7647 42.8246 24.3565L41.2352 22.2165Z" fill="#F34A38"/>
<path d="M36.587 19C36.587 18.9713 36.5885 18.9428 36.5892 18.9142L34.0155 18.0962C33.9698 18.391 33.9459 18.6928 33.9459 19C33.9459 20.6402 34.623 22.1285 35.7179 23.2121L37.3069 21.0725C36.856 20.4976 36.587 19.7791 36.587 19Z" fill="#F34A38"/>
</g>
<path d="M12.0142 21.9341H6.16943V32H2.87109V7.11719H11.1084C13.9111 7.11719 16.0645 7.75521 17.5684 9.03125C19.0837 10.3073 19.8413 12.1644 19.8413 14.6025C19.8413 16.152 19.4198 17.5021 18.5767 18.6528C17.745 19.8035 16.5828 20.6637 15.0903 21.2334L20.9351 31.7949V32H17.4146L12.0142 21.9341ZM6.16943 19.251H11.2109C12.8402 19.251 14.1333 18.8294 15.0903 17.9863C16.0588 17.1432 16.543 16.0153 16.543 14.6025C16.543 13.0645 16.0815 11.8853 15.1587 11.0649C14.2472 10.2446 12.9256 9.82878 11.1938 9.81738H6.16943V19.251Z" fill="#F34A38"/>
<path d="M59.1104 32V7.11719H66.1343C68.299 7.11719 70.2131 7.5957 71.8765 8.55273C73.5399 9.50977 74.8216 10.8713 75.7217 12.6372C76.6331 14.4032 77.0946 16.4312 77.106 18.7212V20.3105C77.106 22.6576 76.6502 24.714 75.7388 26.48C74.8387 28.2459 73.5456 29.6017 71.8594 30.5474C70.1846 31.493 68.2306 31.9772 65.9976 32H59.1104ZM62.3916 9.81738V29.3169H65.8438C68.373 29.3169 70.3384 28.5308 71.7397 26.9585C73.1525 25.3862 73.8589 23.1475 73.8589 20.2422V18.7896C73.8589 15.964 73.1924 13.7708 71.8594 12.21C70.5378 10.6377 68.6579 9.84017 66.2197 9.81738H62.3916ZM85.5996 32H82.3184V7.11719H85.5996V32ZM94.0762 29.3169H108.312V32H90.1968V29.5391L103.834 9.81738H90.4189V7.11719H107.765V9.52686L94.0762 29.3169ZM130.426 24.1045C130.119 26.7363 129.145 28.77 127.504 30.2056C125.875 31.6297 123.704 32.3418 120.993 32.3418C118.053 32.3418 115.695 31.2879 113.917 29.1802C112.152 27.0724 111.269 24.2526 111.269 20.7207V18.3281C111.269 16.0153 111.679 13.9816 112.499 12.2271C113.331 10.4725 114.504 9.12809 116.02 8.19385C117.535 7.24821 119.289 6.77539 121.283 6.77539C123.926 6.77539 126.046 7.51595 127.641 8.99707C129.236 10.4668 130.164 12.5062 130.426 15.1152H127.128C126.843 13.1328 126.222 11.6973 125.265 10.8086C124.319 9.91992 122.992 9.47559 121.283 9.47559C119.187 9.47559 117.541 10.2503 116.344 11.7998C115.159 13.3493 114.567 15.5539 114.567 18.4136V20.8232C114.567 23.5234 115.131 25.6711 116.259 27.2661C117.387 28.8612 118.965 29.6587 120.993 29.6587C122.816 29.6587 124.211 29.2485 125.18 28.4282C126.16 27.5965 126.809 26.1553 127.128 24.1045H130.426ZM148.661 25.5059H138.236L135.895 32H132.511L142.013 7.11719H144.884L154.403 32H151.037L148.661 25.5059ZM139.228 22.8057H147.687L143.449 11.1675L139.228 22.8057ZM166.879 21.9341H161.034V32H157.736V7.11719H165.973C168.776 7.11719 170.929 7.75521 172.433 9.03125C173.948 10.3073 174.706 12.1644 174.706 14.6025C174.706 16.152 174.285 17.5021 173.441 18.6528C172.61 19.8035 171.448 20.6637 169.955 21.2334L175.8 31.7949V32H172.279L166.879 21.9341ZM161.034 19.251H166.076C167.705 19.251 168.998 18.8294 169.955 17.9863C170.924 17.1432 171.408 16.0153 171.408 14.6025C171.408 13.0645 170.946 11.8853 170.023 11.0649C169.112 10.2446 167.79 9.82878 166.059 9.81738H161.034V19.251Z" fill="#F34A38"/>
<defs>
<clipPath id="clip0">
<rect width="30.6667" height="30" fill="white" transform="translate(22.4889 4)"/>
</clipPath>
</defs>
</svg>
