<svg width="64" height="78" viewBox="0 0 64 78" fill="none" xmlns="http://www.w3.org/2000/svg">
<path d="M56.2822 22.9013C56.2418 22.8548 56.2075 22.8095 56.1598 22.7642L54.0572 20.7351C55.801 20.3396 57.6782 18.8787 57.6782 17.3799C57.6782 15.6337 55.2548 15.0141 53.1865 15.0141C51.0239 15.0141 50.7729 16.4958 50.7472 17.5428L45.3224 12.3127C44.2203 11.2217 42.1299 10.3633 40.5674 10.3633H30.0018H29.9994H19.4314C17.8701 10.3633 15.781 11.2217 14.6776 12.3127L9.25403 17.5428C9.22587 16.4958 8.97483 15.0141 6.8147 15.0141C4.74396 15.0141 2.32177 15.6337 2.32177 17.3799C2.32177 18.8787 4.20026 20.3396 5.94404 20.7351L3.84146 22.7642C3.7937 22.8095 3.76064 22.8548 3.719 22.9013C1.46948 24.8239 0 28.3897 0 30.9772V38.6661C0 40.5323 0.735963 42.2258 1.92502 43.4883V46.4701C1.92502 48.2138 3.3847 49.6355 5.17991 49.6355H9.11566C10.9109 49.6355 12.3693 48.2163 12.3693 46.4701V45.7072H29.9994H30.0018H47.6307V46.4701C47.6307 48.2163 49.0879 49.6355 50.8856 49.6355H54.8201C56.6165 49.6355 58.0738 48.2138 58.0738 46.4701V43.4883C59.264 42.2258 59.9988 40.5323 59.9988 38.6661V30.9772C60.0012 28.3897 58.5317 24.8239 56.2822 22.9013ZM16.67 14.6369C17.4329 14.0014 18.7665 13.5189 19.4314 13.5189H29.9994H30.0018H40.5698C41.2348 13.5189 42.5683 14.0014 43.3312 14.6369L50.4447 21.5311H30.0018H29.9994H9.55773L16.67 14.6369ZM2.44056 29.8139C2.44056 27.9207 3.92228 26.3839 5.75178 26.3839C7.58006 26.3839 13.5547 29.891 13.5547 31.7842C13.5547 33.6773 7.58006 33.2389 5.75178 33.2389C3.92228 33.2389 2.44056 31.7082 2.44056 29.8139ZM12.3706 42.336H11.7399H11.1093L7.36821 42.3421C6.32977 42.0189 5.59749 41.6417 5.07949 41.2364C4.81744 41.0319 4.61661 40.8188 4.45986 40.607C4.3019 40.3927 4.18679 40.182 4.11209 39.9714C3.64675 38.6563 4.60804 37.4477 4.60804 37.4477H10.9929L15.2495 42.3336L12.3706 42.336ZM39.1812 42.3385H30.0018H29.9994H20.82C18.9061 42.3385 17.3521 40.7845 17.3521 38.8718H29.9994H30.0018H42.6491C42.6491 40.787 41.0952 42.3385 39.1812 42.3385ZM39.9869 36.506H30.0018H29.9994H20.0143C17.9325 36.506 16.2426 33.9393 16.2426 30.7739H29.9994H30.0018H43.7586C43.7586 33.9406 42.0687 36.506 39.9869 36.506ZM55.8904 39.9739C55.8144 40.1845 55.6993 40.3951 55.5414 40.6082C55.3858 40.82 55.185 41.0331 54.9217 41.2376C54.405 41.6429 53.6714 42.0225 52.633 42.3434L48.892 42.3372H48.2613H47.6307H44.7493L49.0083 37.4513H55.392C55.392 37.4501 56.3545 38.6563 55.8904 39.9739ZM54.2494 33.2389C52.4224 33.2389 46.4477 33.6748 46.4477 31.7842C46.4477 29.8935 52.4224 26.3839 54.2494 26.3839C56.0789 26.3839 57.5607 27.9207 57.5607 29.8139C57.5607 31.7058 56.0789 33.2389 54.2494 33.2389Z" fill="#F34A38"/>
</svg>
