<svg width="64" height="78" viewBox="0 0 64 78" fill="none" xmlns="http://www.w3.org/2000/svg">
<path d="M56.2822 22.9013C56.2418 22.8548 56.2075 22.8095 56.1598 22.7642L54.0572 20.7351C55.801 20.3396 57.6782 18.8787 57.6782 17.3799C57.6782 15.6337 55.2548 15.0141 53.1865 15.0141C51.0239 15.0141 50.7729 16.4958 50.7472 17.5428L45.3224 12.3127C44.2203 11.2217 42.1299 10.3633 40.5674 10.3633H30.0018H29.9994H19.4314C17.8701 10.3633 15.781 11.2217 14.6776 12.3127L9.25403 17.5428C9.22587 16.4958 8.97483 15.0141 6.8147 15.0141C4.74396 15.0141 2.32177 15.6337 2.32177 17.3799C2.32177 18.8787 4.20026 20.3396 5.94404 20.7351L3.84146 22.7642C3.7937 22.8095 3.76064 22.8548 3.719 22.9013C1.46948 24.8239 0 28.3897 0 30.9772V38.6661C0 40.5323 0.735963 42.2258 1.92502 43.4883V46.4701C1.92502 48.2138 3.3847 49.6355 5.17991 49.6355H9.11566C10.9109 49.6355 12.3693 48.2163 12.3693 46.4701V45.7072H29.9994H30.0018H47.6307V46.4701C47.6307 48.2163 49.0879 49.6355 50.8856 49.6355H54.8201C56.6165 49.6355 58.0738 48.2138 58.0738 46.4701V43.4883C59.264 42.2258 59.9988 40.5323 59.9988 38.6661V30.9772C60.0012 28.3897 58.5317 24.8239 56.2822 22.9013ZM16.67 14.6369C17.4329 14.0014 18.7665 13.5189 19.4314 13.5189H29.9994H30.0018H40.5698C41.2348 13.5189 42.5683 14.0014 43.3312 14.6369L50.4447 21.5311H30.0018H29.9994H9.55773L16.67 14.6369ZM2.44056 29.8139C2.44056 27.9207 3.92228 26.3839 5.75178 26.3839C7.58006 26.3839 13.5547 29.891 13.5547 31.7842C13.5547 33.6773 7.58006 33.2389 5.75178 33.2389C3.92228 33.2389 2.44056 31.7082 2.44056 29.8139ZM12.3706 42.336H11.7399H11.1093L7.36821 42.3421C6.32977 42.0189 5.59749 41.6417 5.07949 41.2364C4.81744 41.0319 4.61661 40.8188 4.45986 40.607C4.3019 40.3927 4.18679 40.182 4.11209 39.9714C3.64675 38.6563 4.60804 37.4477 4.60804 37.4477H10.9929L15.2495 42.3336L12.3706 42.336ZM39.1812 42.3385H30.0018H29.9994H20.82C18.9061 42.3385 17.3521 40.7845 17.3521 38.8718H29.9994H30.0018H42.6491C42.6491 40.787 41.0952 42.3385 39.1812 42.3385ZM39.9869 36.506H30.0018H29.9994H20.0143C17.9325 36.506 16.2426 33.9393 16.2426 30.7739H29.9994H30.0018H43.7586C43.7586 33.9406 42.0687 36.506 39.9869 36.506ZM55.8904 39.9739C55.8144 40.1845 55.6993 40.3951 55.5414 40.6082C55.3858 40.82 55.185 41.0331 54.9217 41.2376C54.405 41.6429 53.6714 42.0225 52.633 42.3434L48.892 42.3372H48.2613H47.6307H44.7493L49.0083 37.4513H55.392C55.392 37.4501 56.3545 38.6563 55.8904 39.9739ZM54.2494 33.2389C52.4224 33.2389 46.4477 33.6748 46.4477 31.7842C46.4477 29.8935 52.4224 26.3839 54.2494 26.3839C56.0789 26.3839 57.5607 27.9207 57.5607 29.8139C57.5607 31.7058 56.0789 33.2389 54.2494 33.2389Z" fill="#F34A38"/>
<path d="M2.85059 65.0469L6.10449 73.168L9.3584 65.0469H11.0605V75H9.74805V71.124L9.87109 66.9404L6.60352 75H5.59863L2.33789 66.9609L2.46777 71.124V75H1.15527V65.0469H2.85059ZM16.249 75.1367C15.2464 75.1367 14.4307 74.8086 13.8018 74.1523C13.1729 73.4915 12.8584 72.6097 12.8584 71.5068V71.2744C12.8584 70.5407 12.9974 69.8867 13.2754 69.3125C13.5579 68.7337 13.9499 68.2826 14.4512 67.959C14.957 67.6309 15.5039 67.4668 16.0918 67.4668C17.0534 67.4668 17.8008 67.7835 18.334 68.417C18.8672 69.0505 19.1338 69.9574 19.1338 71.1377V71.6641H14.123C14.1413 72.3932 14.3532 72.9834 14.7588 73.4346C15.1689 73.8812 15.6885 74.1045 16.3174 74.1045C16.764 74.1045 17.1423 74.0133 17.4521 73.8311C17.762 73.6488 18.0332 73.4072 18.2656 73.1064L19.0381 73.708C18.4183 74.6605 17.4886 75.1367 16.249 75.1367ZM16.0918 68.5059C15.5814 68.5059 15.153 68.6927 14.8066 69.0664C14.4603 69.4355 14.2461 69.9551 14.1641 70.625H17.8691V70.5293C17.8327 69.8867 17.6595 69.39 17.3496 69.0391C17.0397 68.6836 16.6204 68.5059 16.0918 68.5059ZM25.1699 74.2686C24.6777 74.8473 23.9554 75.1367 23.0029 75.1367C22.2145 75.1367 21.613 74.9089 21.1982 74.4531C20.7881 73.9928 20.5807 73.3138 20.5762 72.416V67.6035H21.8408V72.3818C21.8408 73.5029 22.2965 74.0635 23.208 74.0635C24.1742 74.0635 24.8167 73.7035 25.1357 72.9834V67.6035H26.4004V75H25.1973L25.1699 74.2686ZM34.7676 74.1045C35.2188 74.1045 35.613 73.9678 35.9502 73.6943C36.2874 73.4209 36.4743 73.0791 36.5107 72.6689H37.707C37.6842 73.0928 37.5384 73.4961 37.2695 73.8789C37.0007 74.2617 36.6406 74.5671 36.1895 74.7949C35.7428 75.0228 35.2689 75.1367 34.7676 75.1367C33.7604 75.1367 32.9583 74.8018 32.3613 74.1318C31.7689 73.4574 31.4727 72.5368 31.4727 71.3701V71.1582C31.4727 70.4382 31.6048 69.7979 31.8691 69.2373C32.1335 68.6768 32.5117 68.2415 33.0039 67.9316C33.5007 67.6217 34.0863 67.4668 34.7607 67.4668C35.5902 67.4668 36.2783 67.7152 36.8252 68.2119C37.3766 68.7087 37.6706 69.3535 37.707 70.1465H36.5107C36.4743 69.668 36.292 69.276 35.9639 68.9707C35.6403 68.6608 35.2393 68.5059 34.7607 68.5059C34.1182 68.5059 33.6191 68.7383 33.2637 69.2031C32.9128 69.6634 32.7373 70.3311 32.7373 71.2061V71.4453C32.7373 72.2975 32.9128 72.9538 33.2637 73.4141C33.6146 73.8743 34.1159 74.1045 34.7676 74.1045ZM43.6953 75C43.6224 74.8542 43.5632 74.5944 43.5176 74.2207C42.9297 74.8314 42.2279 75.1367 41.4121 75.1367C40.6829 75.1367 40.0837 74.9316 39.6143 74.5215C39.1494 74.1068 38.917 73.5827 38.917 72.9492C38.917 72.179 39.2087 71.582 39.792 71.1582C40.3799 70.7298 41.2048 70.5156 42.2666 70.5156H43.4971V69.9346C43.4971 69.4925 43.3649 69.1416 43.1006 68.8818C42.8363 68.6175 42.4466 68.4854 41.9316 68.4854C41.4805 68.4854 41.1022 68.5993 40.7969 68.8271C40.4915 69.055 40.3389 69.3307 40.3389 69.6543H39.0674C39.0674 69.2852 39.1973 68.9297 39.457 68.5879C39.7214 68.2415 40.0768 67.9681 40.5234 67.7676C40.9746 67.5671 41.4691 67.4668 42.0068 67.4668C42.859 67.4668 43.5267 67.681 44.0098 68.1094C44.4928 68.5332 44.7435 69.1188 44.7617 69.8662V73.2705C44.7617 73.9495 44.8483 74.4896 45.0215 74.8906V75H43.6953ZM41.5967 74.0361C41.9932 74.0361 42.3691 73.9336 42.7246 73.7285C43.0801 73.5234 43.3376 73.2568 43.4971 72.9287V71.4111H42.5059C40.9564 71.4111 40.1816 71.8646 40.1816 72.7715C40.1816 73.168 40.3138 73.4779 40.5781 73.7012C40.8424 73.9245 41.182 74.0361 41.5967 74.0361ZM50.3193 68.7383C50.1279 68.7064 49.9206 68.6904 49.6973 68.6904C48.8678 68.6904 48.305 69.0436 48.0088 69.75V75H46.7441V67.6035H47.9746L47.9951 68.458C48.4098 67.7972 48.9977 67.4668 49.7588 67.4668C50.0049 67.4668 50.1917 67.4987 50.3193 67.5625V68.7383ZM55.0635 68.7383C54.8721 68.7064 54.6647 68.6904 54.4414 68.6904C53.612 68.6904 53.0492 69.0436 52.7529 69.75V75H51.4883V67.6035H52.7188L52.7393 68.458C53.154 67.7972 53.7419 67.4668 54.5029 67.4668C54.749 67.4668 54.9359 67.4987 55.0635 67.5625V68.7383ZM55.7607 71.2334C55.7607 70.5088 55.902 69.8571 56.1846 69.2783C56.4717 68.6995 56.8682 68.2529 57.374 67.9385C57.8844 67.624 58.4655 67.4668 59.1172 67.4668C60.1243 67.4668 60.9378 67.8154 61.5576 68.5127C62.182 69.21 62.4941 70.1374 62.4941 71.2949V71.3838C62.4941 72.1038 62.3551 72.751 62.0771 73.3252C61.8037 73.8949 61.4095 74.3392 60.8945 74.6582C60.3841 74.9772 59.7962 75.1367 59.1309 75.1367C58.1283 75.1367 57.3148 74.7881 56.6904 74.0908C56.0706 73.3936 55.7607 72.4707 55.7607 71.3223V71.2334ZM57.0322 71.3838C57.0322 72.2041 57.2214 72.8626 57.5996 73.3594C57.9824 73.8561 58.4928 74.1045 59.1309 74.1045C59.7734 74.1045 60.2839 73.8538 60.6621 73.3525C61.0404 72.8467 61.2295 72.1403 61.2295 71.2334C61.2295 70.4222 61.0358 69.766 60.6484 69.2646C60.2656 68.7588 59.7552 68.5059 59.1172 68.5059C58.4928 68.5059 57.9893 68.7542 57.6064 69.251C57.2236 69.7477 57.0322 70.4587 57.0322 71.3838Z" fill="#FDF8F8"/>
</svg>
