<svg width="60" height="60" viewBox="0 0 60 60" fill="none" xmlns="http://www.w3.org/2000/svg">
<path d="M34.4063 27.065C32.788 27.065 31.4714 28.3816 31.4714 29.9999C31.4714 31.6183 32.788 32.9349 34.4063 32.9349C36.0247 32.9349 37.3413 31.6183 37.3413 29.9999C37.3413 28.3816 36.0247 27.065 34.4063 27.065Z" fill="#F34A38"/>
<path d="M36.3503 18.1684V23.461C37.8576 23.9098 39.1478 24.8659 40.0222 26.1315L45.0561 24.4957C43.3441 21.1967 40.1438 18.7894 36.3503 18.1684Z" fill="#F34A38"/>
<path d="M46.2603 28.1923L41.2249 29.8285C41.2263 29.8857 41.2293 29.9425 41.2293 29.9999C41.2293 31.5582 40.7032 32.995 39.8207 34.145L42.9297 38.424C45.0718 36.2569 46.3965 33.2804 46.3965 29.9999C46.3965 29.3856 46.3499 28.782 46.2603 28.1923Z" fill="#F34A38"/>
<path d="M34.4063 4.40627H10.7565C9.68299 4.40627 8.81263 5.27662 8.81263 6.35018C8.81263 7.42373 9.68299 8.29409 10.7565 8.29409H20.8612C18.7293 9.62921 16.8071 11.2689 15.1565 13.1527H1.94391C0.870353 13.1528 0 14.0233 0 15.0968C0 16.1704 0.870353 17.0407 1.94391 17.0407H12.3443C10.1016 20.8442 8.81252 25.2741 8.81252 30C8.81252 35.4989 10.5562 40.5982 13.5189 44.7746H8.00334C6.92978 44.7746 6.05943 45.645 6.05943 46.7186C6.05943 47.7921 6.92978 48.6625 8.00334 48.6625H16.9118C18.1239 49.7994 19.4464 50.8197 20.8612 51.7057H2.14442C1.07086 51.7057 0.200508 52.5761 0.200508 53.6496C0.200508 54.7232 1.07086 55.5935 2.14442 55.5935H34.4063C48.5189 55.5935 60 44.1122 60 29.9998C60 15.8875 48.5188 4.40627 34.4063 4.40627ZM43.8491 42.757C43.8133 42.7873 43.7778 42.8177 43.7393 42.8455C43.6959 42.877 43.6515 42.9064 43.6066 42.9339C41.0093 44.7867 37.8329 45.878 34.4063 45.878C30.9797 45.878 27.8035 44.7867 25.206 42.9339C25.161 42.9064 25.1167 42.877 25.0734 42.8455C25.0349 42.8175 24.9994 42.787 24.9636 42.757C21.0618 39.8613 18.5282 35.2211 18.5282 30C18.5282 21.2447 25.6511 14.1218 34.4063 14.1218C43.1615 14.1218 50.2844 21.2447 50.2844 30C50.2844 35.2213 47.751 39.8613 43.8491 42.757Z" fill="#F34A38"/>
<path d="M23.7565 24.4956L28.7903 26.1313C29.6649 24.866 30.955 23.9098 32.4623 23.4609V18.1683C28.6689 18.7894 25.4686 21.1966 23.7565 24.4956Z" fill="#F34A38"/>
<path d="M36.6773 36.433C35.9664 36.6847 35.2025 36.8231 34.4063 36.8231C33.6104 36.8231 32.8462 36.6847 32.1353 36.433L29.0256 40.7129C30.6447 41.5293 32.4726 41.9901 34.4063 41.9901C36.34 41.9901 38.1679 41.5295 39.787 40.7129L36.6773 36.433Z" fill="#F34A38"/>
<path d="M27.5834 29.9999C27.5834 29.9425 27.5862 29.8857 27.5876 29.8285L22.5522 28.1923C22.4627 28.782 22.416 29.3856 22.416 29.9999C22.416 33.2805 23.7408 36.2571 25.8829 38.4242L28.9919 34.145C28.1096 32.9951 27.5834 31.5582 27.5834 29.9999Z" fill="#F34A38"/>
</svg>
