<?xml version="1.0" encoding="UTF-8"?>
<!DOCTYPE svg PUBLIC "-//W3C//DTD SVG 1.1//EN" "http://www.w3.org/Graphics/SVG/1.1/DTD/svg11.dtd">
<!-- Creator: CorelDRAW 2018 (64 Bit) -->
<svg xmlns="http://www.w3.org/2000/svg" xml:space="preserve" width="261.07mm" height="154.887mm" version="1.1" style="shape-rendering:geometricPrecision; text-rendering:geometricPrecision; image-rendering:optimizeQuality; fill-rule:evenodd; clip-rule:evenodd"
viewBox="0 0 29596.76 17559.08"
 xmlns:xlink="http://www.w3.org/1999/xlink">
 <defs>
  <style type="text/css">
   <![CDATA[
    .fil2 {fill:#168DE2}
    .fil6 {fill:#209AE5}
    .fil1 {fill:#454545}
    .fil0 {fill:#6F6F6F}
    .fil3 {fill:#CACACA}
    .fil4 {fill:#E95353}
    .fil7 {fill:#F34A38}
    .fil5 {fill:white}
   ]]>
  </style>
   <clipPath id="id0">
    <path d="M12400.64 8824.6l4239.02 0c83.66,0 152.1,68.44 152.1,152.1l0 1173.83c0,83.66 -68.44,152.1 -152.1,152.1l-4239.02 0c-83.66,0 -152.1,-68.44 -152.1,-152.1l0 -1173.83c0,-83.66 68.44,-152.1 152.1,-152.1z"/>
   </clipPath>
 </defs>
 <g id="Camada_x0020_1">
  <metadata id="CorelCorpID_0Corel-Layer"/>
  <g id="_2518081651536">
   <path class="fil0" d="M5054.13 12175.82l0 1283.87c0,378.53 306.83,685.36 685.36,685.36l1693.39 0c378.54,0 685.37,-306.83 685.37,-685.36l0 -1283.87 -3064.12 0 0 0z"/>
   <path class="fil0" d="M20920.9 12175.82l0 1283.87c0,378.53 306.82,685.36 685.36,685.36l1693.97 0c378.54,0 685.37,-306.83 685.37,-685.36l0 -1283.87 -3064.7 0 0 0z"/>
   <path class="fil0" d="M23995.34 2894.78c-9.72,-6.7 -573.56,-126.37 -585.75,-128.81 -417.42,-89.32 -840.29,127.01 -1012.24,517.68l-123.94 281.34 -427.13 -0.01 292.85 549.86 1606.48 -193.22c517.68,-62.58 684.15,-738.22 249.74,-1026.85z"/>
  </g>
  <path class="fil1" d="M23985.63 6750.58l0 5422.18 -18933.33 0.01 0 -5422.19c0,-754.03 904.72,-1288.72 904.72,-1288.72 123.35,-822.71 904.7,-1274.75 904.7,-1274.75l1590.08 -2982.08c781.98,-1412.04 2146.05,-1192.7 2146.05,-1192.7l7842.24 0c0,0 1370.73,-219.34 2152.72,1192.7l1583.38 2982.08c0,0 781.35,452.66 904.72,1274.75 0.02,0.03 904.74,534.71 904.74,1288.72z"/>
  <path class="fil2" d="M21899.73 4306.24c-522.53,-944.22 -1045.69,-1923.02 -1569.43,-2926.78 -390.69,-719.98 -1027.45,-1138.04 -1890.25,-1066.33 -8406.09,-3.05 -8046.39,-12.77 -8046.39,-12.77 -409.52,-1.21 -1173.28,147.64 -1676.98,1075.46 -526.79,1005.59 -1052.98,1985.65 -1578.51,2930.46 4913.04,386.37 9848.57,386.37 14761.57,-0.05z"/>
  <path class="fil0" d="M18666.71 8190.59l-514.03 2234.75c-109.98,473.31 -534.68,808.73 -1021.38,808.73l-5224.1 0c-486.7,0 -911.4,-336.01 -1021.37,-808.73l-514.03 -2234.75c-184.73,-808.73 425.33,-1583.39 1254.69,-1583.39l5785.52 0c829.36,-0.62 1446.09,774.07 1254.7,1583.39z"/>
  <path class="fil3" d="M10102.02 6731.15l-3545.33 -586.32c-475.14,-78.36 -927.2,260.67 -964.87,740.67 -1.21,11.54 -1.84,23.1 -2.43,34.61 -24.32,388.87 225.41,744.94 600.89,850.63 569.92,160.4 1430.89,287.99 1918.81,-199.88l1334.26 16.42 658.66 -856.13z"/>
  <g id="_2518081654512">
   <path class="fil0" d="M9722.9 10249.74c-119.09,-173.17 -309.25,-283.13 -518.27,-300.13l-2812.58 -226.04c-563.26,-45.58 -740.04,382.81 -799.6,893.78 -47.39,408.3 267.35,774.07 678.07,783.2l2700.78 60.15c264.93,6.07 390.08,-106.95 593.02,-258.23 300.76,-223.61 370,-644.67 158.58,-952.73z"/>
   <path class="fil0" d="M6766.31 3564.95l-123.94 -281.34c-172.54,-390.69 -594.83,-607 -1012.24,-518.27 -12.14,2.43 -575.98,122.73 -585.75,129.43 -434.41,289.2 -267.93,964.27 249.74,1026.85l1606.49 193.22 292.85 -549.86 -427.14 -0.02 0 0z"/>
  </g>
  <circle class="fil4" cx="6512.35" cy="6949.87" r="582.09"/>
  <path class="fil3" d="M18937.71 6731.15l3545.33 -586.32c475.14,-78.36 927.18,260.67 964.86,740.67 0.63,11.54 1.85,23.1 2.43,34.61 24.33,388.87 -225.41,744.94 -600.89,850.63 -569.91,160.4 -1430.89,287.99 -1918.8,-199.88l-1334.27 16.42 -658.65 -856.13z"/>
  <path class="fil0" d="M22647.67 9723.57l-2812.58 226.04c-209,16.99 -399.8,126.99 -518.26,300.13 -225.41,328.72 -183.52,698.13 319.59,1073.02 124.58,92.97 276.45,141.57 432,137.93l2700.78 -60.15c410.73,-9.13 725.47,-374.89 678.08,-783.2 -58.94,-511 -236.35,-939.36 -799.61,-893.78z"/>
  <circle class="fil4" cx="22527.37" cy="6949.87" r="582.09"/>
  <g id="_2518081656656">
   <path class="fil5" d="M15787.92 6827.77c-388.25,0 -704.2,315.95 -704.2,704.2 0,388.24 315.95,704.83 704.2,704.83 388.24,0 704.2,-315.95 704.2,-704.83 0,-388.87 -315.97,-704.2 -704.2,-704.2zm0 1263.78c-308.68,0 -559.58,-250.95 -559.58,-560.22 0,-308.66 250.95,-559.58 559.58,-559.58 308.66,0 559.58,250.95 559.58,559.58 0.03,309.27 -250.92,560.22 -559.58,560.22z"/>
   <path class="fil5" d="M14942.77 6827.77c-388.25,0 -704.2,315.95 -704.2,704.2 0,388.24 315.95,704.83 704.2,704.83 388.24,0 704.2,-315.95 704.2,-704.83 -0.01,-388.87 -315.97,-704.2 -704.2,-704.2zm0 1263.78c-308.68,0 -559.58,-250.95 -559.58,-560.22 0,-308.66 250.94,-559.58 559.58,-559.58 308.63,0 559.57,250.95 559.57,559.58 0,309.27 -250.95,560.22 -559.57,560.22z"/>
   <path class="fil5" d="M14097.58 6827.77c-388.24,0 -704.2,315.95 -704.2,704.2 0,388.24 315.97,704.83 704.2,704.83 388.25,0 704.2,-315.95 704.2,-704.83 0,-388.87 -315.95,-704.2 -704.2,-704.2zm0 1263.78c-308.66,0 -559.57,-250.95 -559.57,-560.22 0,-308.66 250.94,-559.58 559.57,-559.58 308.68,0 559.58,250.95 559.58,559.58 0.05,309.27 -250.9,560.22 -559.58,560.22z"/>
   <path class="fil5" d="M13252.4 6827.77c-388.25,0 -704.2,315.95 -704.2,704.2 0,388.24 315.95,704.83 704.2,704.83 388.25,0 704.2,-315.95 704.2,-704.83 0.03,-388.87 -315.92,-704.2 -704.2,-704.2zm0 1263.78c-308.68,0 -559.58,-250.95 -559.58,-560.22 0,-308.66 250.95,-559.58 559.58,-559.58 308.68,0 559.58,250.95 559.58,559.58 0.03,309.27 -250.9,560.22 -559.58,560.22z"/>
  </g>
  <path class="fil6" d="M15095.85 2358.9l0 -1341.6c0,-214.48 177.4,-391.9 397.37,-391.9l32.18 0c214.48,-16.4 397.37,161.04 397.37,370.04l0 1312.42c0,257.6 187.74,483.07 439.9,498.85 274.02,10.93 498.85,-203.56 498.85,-472.09l0 -978.22c0,-214.48 177.4,-391.89 391.89,-391.89l32.18 0c230.89,0 418.64,187.74 418.64,413.17l0 753.43c0,252.15 193.21,483.06 445.39,493.97 268.57,15.78 498.84,-198.66 498.84,-466.65l0 -866.45c0,-225.41 187.74,-397.37 413.16,-391.89 5.49,0 5.49,0 5.49,0 5.49,0 5.49,0 10.93,0 225.41,-5.49 413.16,166.47 413.16,391.89l0 956.95c0,257.6 193.22,483.07 445.39,498.85 274.02,10.93 493.99,-204.15 493.99,-472.09l-0.02 -707.89c-33.41,-63.2 -66.22,-124.57 -99.63,-188.36 -390.67,-719.98 -1027.44,-1138.04 -1890.24,-1066.33 -8406.73,-3.06 -8047.03,-12.77 -8047.03,-12.77 -409.52,-1.21 -1173.28,147.64 -1676.98,1075.46 -36.46,68.66 -72.29,134.87 -108.75,204.14l0 551.08c0,252.16 193.22,483.07 450.83,493.99 268.57,15.78 493.97,-198.66 493.97,-466.65l0 -866.45c0,-225.41 187.74,-397.37 418.64,-391.89 0,0 0,0 5.49,0 0,0 0,0 5.48,0 224.83,-5.49 418.02,166.47 418.02,391.89l0 956.95c0,257.6 187.74,483.06 439.9,498.84 269.16,10.34 489.12,-197.44 496.41,-459.95l0 -1277.72c0,-268.57 223.62,-483.06 495.2,-470.87 253.38,15.19 443.54,241.82 443.54,495.19l0 1220.67c7.29,246.09 195.66,463.59 442.96,479.37 273.43,10.93 493.99,-204.15 493.99,-472.09l5.49 -1040.21c0,-268.57 219.92,-483.06 493.97,-472.09 252.16,15.78 445.39,241.82 445.39,498.85l0 1125.88c5.49,252.16 214.49,456.3 466.65,456.3 263,-0.02 472.02,-214.5 472.02,-472.11z"/>
  <g id="_2518081658320">
  </g>
  <g id="_2518081657232">
  </g>
  <g id="_2518081658160">
  </g>
  <g id="_2518081659856">
  </g>
  <g id="_2518081660720">
  </g>
  <g id="_2518081659760">
  </g>
  <g id="_2518081661104">
  </g>
  <g id="_2518081660176">
  </g>
  <g id="_2518081661488">
  </g>
  <g id="_2518081661584">
  </g>
  <g id="_2518081662416">
  </g>
  <g id="_2518081662480">
  </g>
  <g id="_2518081648272">
  </g>
  <g id="_2518081647760">
  </g>
  <g id="_2518081648688">
  </g>
  <path class="fil7" d="M29596.71 9941.38c-1.86,-1051.38 -1491.63,-1865.13 -4554.55,-2487.65 -338.87,-68.87 -691.49,-133.91 -1056.54,-195.03l0 879.46c304.08,52.32 599.04,107.42 883.87,165.31 3052.92,620.48 3859.96,1343.83 3860.17,1639.67 -0.1,223.06 -427.24,600.95 -1501.53,997.73 -873.13,-292.44 -1975.42,-547.95 -3242.52,-759.03l0 569.47 0 57.64 0 250.04c608.03,104.06 1174.45,218.74 1691.39,343.14 -1153.65,280.41 -2683.94,543.48 -4673.23,739.12 -221.9,21.78 -391.12,208.45 -391.12,431.48l0.24 2919.44c0,122.37 51.73,239.03 142.38,321.23 80.12,72.6 184.05,112.32 291.17,112.32 14.11,0 28.27,-0.7 42.43,-2.07 2425.43,-238.51 4482.3,-610.61 5948.32,-1076.13 1722.35,-546.79 2559.55,-1196 2559.55,-1984.72l0 -2919.68c0,-0.63 -0.07,-1.16 -0.07,-1.73l0.02 -0.01zm-24543.71 -2581.6c-180.65,33.26 -324.76,58.66 -498.38,93.95 -3058.18,621.6 -4547.9,1433.78 -4554.33,2482.84 0,2.13 -0.28,4.27 -0.28,6.46l0 2919.68c0,743.27 741.02,1360.77 2265.48,1887.68 1282.33,443.21 3105.99,812.88 5273.91,1068.96 237.75,28.02 453.32,-141.92 481.42,-379.68 28.09,-237.75 -141.94,-453.33 -379.68,-481.42 -2107.05,-248.91 -3868.01,-604.18 -5092.38,-1027.38 -1327.47,-458.81 -1681.65,-887.27 -1681.65,-1068.09l0 -1668.51c742.93,478.48 1967.09,888.54 3687.52,1238.22 2740.71,557.09 6378.76,863.85 10243.85,863.85 239.5,0 433.55,-194.12 433.55,-433.55l0 -491.68 2683.35 1951.52 -2683.35 1951.54 0 -491.65c0,-239.43 -194.05,-433.55 -433.55,-433.55 -1782.11,0 -3520.19,-65.89 -5165.87,-195.84 -237.99,-19.14 -447.46,159.38 -466.32,398.04 -18.85,238.67 159.38,447.47 398.05,466.32 1534.41,121.17 3147.39,187.42 4800.52,197.25l0 910.8c0,163.07 91.5,312.32 236.82,386.38 62.1,31.62 129.54,47.17 196.66,47.17 90.01,0 179.48,-27.99 255.03,-82.96l3853.97 -2802.9c112.15,-81.56 178.56,-211.93 178.56,-350.6 0,-138.67 -66.35,-269.03 -178.56,-350.59l-3853.97 -2802.91c-131.85,-95.84 -306.31,-109.72 -451.7,-35.72 -145.34,74.01 -236.84,223.31 -236.84,386.39l0 908.2c-3646.14,-21.91 -7054.1,-320.07 -9637.59,-845.19 -290.78,-59.09 -561.01,-119.14 -812.24,-179.62l1137.3 -252.08 0.71 -868.69c-1052,192.75 -1941.62,408.87 -2693.56,661.37 -1134.85,-418.35 -1491.87,-803.57 -1492.36,-1000.29 0,-0.06 0,-0.1 0,-0.17 0,-295.8 806.8,-1019.23 3860.24,-1639.84 117.88,-23.97 204.37,-38.52 325.62,-61.54l0.05 -882.16zm23676.67 5503c0,456.28 -1785.46,1560.48 -7249.66,2148.95l-0.1 -2047.49c2255.65,-239.19 4170.72,-595.93 5557.44,-1036.23 715.87,-227.35 1278.85,-472.4 1692.32,-737.71l0 1672.48z"/>
  <g style="clip-path:url(#id0)">
   <image x="10737.59" y="7561.26" width="7300.16" height="4288.84" xlink:href="Rodzcar_Images\Rodzcar_ImgID1.png"/>
  </g>
 </g>
</svg>
