<?xml version="1.0" encoding="UTF-8" standalone="no"?>
<!-- Created with Inkscape (http://www.inkscape.org/) -->

<svg
   xmlns:dc="http://purl.org/dc/elements/1.1/"
   xmlns:cc="http://creativecommons.org/ns#"
   xmlns:rdf="http://www.w3.org/1999/02/22-rdf-syntax-ns#"
   xmlns:svg="http://www.w3.org/2000/svg"
   xmlns="http://www.w3.org/2000/svg"
   xmlns:sodipodi="http://sodipodi.sourceforge.net/DTD/sodipodi-0.dtd"
   xmlns:inkscape="http://www.inkscape.org/namespaces/inkscape"
   width="400mm"
   height="500mm"
   viewBox="0 0 400 500"
   version="1.1"
   id="svg8"
   inkscape:version="0.92.3 (2405546, 2018-03-11)"
   sodipodi:docname="testeLogo.svg">
  <defs
     id="defs2">
    <clipPath
       id="clip0">
      <rect
         width="200"
         height="140"
         id="rect3757"
         x="0"
         y="0"
         style="fill:#ffffff" />
    </clipPath>
    <clipPath
       id="clip0-6">
      <rect
         width="30.6667"
         height="30"
         transform="translate(22.4889,4)"
         id="rect3816"
         x="0"
         y="0"
         style="fill:#ffffff" />
    </clipPath>
    <clipPath
       id="clip0-4">
      <rect
         id="rect314"
         transform="translate(22.4889,4)"
         height="30"
         width="30.6667"
         x="0"
         y="0"
         style="fill:#ffffff" />
    </clipPath>
  </defs>
  <sodipodi:namedview
     id="base"
     pagecolor="#ffffff"
     bordercolor="#666666"
     borderopacity="1.0"
     inkscape:pageopacity="0.0"
     inkscape:pageshadow="2"
     inkscape:zoom="0.42440218"
     inkscape:cx="444.56678"
     inkscape:cy="901.46111"
     inkscape:document-units="mm"
     inkscape:current-layer="layer1"
     showgrid="false"
     inkscape:snap-text-baseline="false"
     inkscape:window-width="1920"
     inkscape:window-height="1027"
     inkscape:window-x="-8"
     inkscape:window-y="-8"
     inkscape:window-maximized="1" />
  <metadata
     id="metadata5">
    <rdf:RDF>
      <cc:Work
         rdf:about="">
        <dc:format>image/svg+xml</dc:format>
        <dc:type
           rdf:resource="http://purl.org/dc/dcmitype/StillImage" />
        <dc:title></dc:title>
      </cc:Work>
    </rdf:RDF>
  </metadata>
  <g
     inkscape:label="Camada 1"
     inkscape:groupmode="layer"
     id="layer1"
     transform="translate(0,203)">
    <g
       id="g290"
       transform="matrix(0.51187985,0,0,0.48723688,70.206866,-16.31521)">
      <g
         id="g178">
	<path
   id="path172"
   d="m 6.605,378.629 v 32.784 c 0,9.666 7.835,17.501 17.501,17.501 h 43.241 c 9.666,0 17.501,-7.835 17.501,-17.501 v -32.784 z"
   style="fill:#6f6f6f"
   inkscape:connector-curvature="0" />

	<path
   id="path174"
   d="m 411.767,378.629 v 32.784 c 0,9.666 7.835,17.501 17.501,17.501 h 43.256 c 9.666,0 17.501,-7.835 17.501,-17.501 v -32.784 z"
   style="fill:#6f6f6f"
   inkscape:connector-curvature="0" />

	<path
   id="path176"
   d="m 490.274,141.635 c -0.248,-0.171 -14.646,-3.227 -14.957,-3.289 -10.659,-2.281 -21.457,3.243 -25.848,13.219 l -3.165,7.184 h -10.907 l 7.478,14.041 41.022,-4.934 c 13.219,-1.598 17.47,-18.851 6.377,-26.221 z"
   style="fill:#6f6f6f"
   inkscape:connector-curvature="0" />

</g>
      <path
         id="path180"
         d="M 490.026,240.094 V 378.551 H 6.558 V 240.094 c 0,-19.254 23.102,-32.908 23.102,-32.908 3.15,-21.008 23.102,-32.551 23.102,-32.551 L 93.365,98.487 c 19.968,-36.057 54.8,-30.456 54.8,-30.456 h 200.254 c 0,0 35.002,-5.601 54.97,30.456 l 40.432,76.148 c 0,0 19.952,11.559 23.102,32.551 10e-4,0.001 23.103,13.654 23.103,32.908 z"
         style="fill:#454545"
         inkscape:connector-curvature="0" />
      <path
         id="path182"
         d="M 436.762,177.677 C 423.419,153.566 410.06,128.572 396.686,102.941 386.71,84.556 370.45,73.881 348.418,75.712 133.766,75.634 142.951,75.386 142.951,75.386 c -10.457,-0.031 -29.96,3.77 -42.822,27.462 -13.452,25.678 -26.888,50.704 -40.308,74.83 125.456,9.866 251.486,9.866 376.941,-0.001 z"
         style="fill:#168de2"
         inkscape:connector-curvature="0" />
      <path
         id="path184"
         d="M 354.206,276.865 341.08,333.93 c -2.808,12.086 -13.653,20.651 -26.081,20.651 H 181.6 c -12.428,0 -23.273,-8.58 -26.081,-20.651 l -13.126,-57.065 c -4.717,-20.651 10.861,-40.432 32.039,-40.432 h 147.735 c 21.178,-0.016 36.926,19.766 32.039,40.432 z"
         style="fill:#6f6f6f"
         inkscape:connector-curvature="0" />
      <path
         id="path186"
         d="M 135.504,239.598 44.973,224.626 c -12.133,-2.001 -23.676,6.656 -24.638,18.913 -0.031,0.295 -0.047,0.59 -0.062,0.884 -0.621,9.93 5.756,19.022 15.344,21.721 14.553,4.096 36.538,7.354 48.997,-5.104 l 34.071,0.419 z"
         style="fill:#cacaca"
         inkscape:connector-curvature="0" />
      <g
         id="g192">
	<path
   id="path188"
   d="m 125.823,329.446 c -3.041,-4.422 -7.897,-7.23 -13.234,-7.664 l -71.82,-5.772 c -14.383,-1.164 -18.897,9.775 -20.418,22.823 -1.21,10.426 6.827,19.766 17.315,19.999 l 68.965,1.536 c 6.765,0.155 9.961,-2.731 15.143,-6.594 7.68,-5.71 9.448,-16.462 4.049,-24.328 z"
   style="fill:#6f6f6f"
   inkscape:connector-curvature="0" />

	<path
   id="path190"
   d="m 50.326,158.748 -3.165,-7.184 c -4.406,-9.976 -15.189,-15.5 -25.848,-13.234 -0.31,0.062 -14.708,3.134 -14.957,3.305 -11.093,7.385 -6.842,24.623 6.377,26.221 l 41.022,4.934 7.478,-14.041 z"
   style="fill:#6f6f6f"
   inkscape:connector-curvature="0" />

</g>
      <rect
         id="rect194"
         height="29.400999"
         width="138.287"
         style="fill:#ffffff"
         y="291.21701"
         x="179.118" />
      <circle
         id="circle196"
         r="14.864"
         cy="245.183"
         cx="43.841"
         style="fill:#e95353" />
      <path
         id="path198"
         d="m 361.126,239.598 90.531,-14.972 c 12.133,-2.001 23.676,6.656 24.638,18.913 0.016,0.295 0.047,0.59 0.062,0.884 0.621,9.93 -5.756,19.022 -15.344,21.721 -14.553,4.096 -36.538,7.354 -48.997,-5.104 l -34.071,0.419 z"
         style="fill:#cacaca"
         inkscape:connector-curvature="0" />
      <path
         id="path200"
         d="m 455.861,316.01 -71.82,5.772 c -5.337,0.434 -10.209,3.243 -13.234,7.664 -5.756,8.394 -4.686,17.827 8.161,27.4 3.181,2.374 7.059,3.615 11.031,3.522 l 68.965,-1.536 c 10.488,-0.233 18.525,-9.573 17.315,-19.999 -1.505,-13.049 -6.035,-23.987 -20.418,-22.823 z"
         style="fill:#6f6f6f"
         inkscape:connector-curvature="0" />
      <circle
         id="circle202"
         r="14.864"
         cy="245.183"
         cx="452.789"
         style="fill:#e95353" />
      <g
         id="g212">
	<path
   id="path204"
   d="m 280.695,242.065 c -9.914,0 -17.982,8.068 -17.982,17.982 0,9.914 8.068,17.998 17.982,17.998 9.914,0 17.982,-8.068 17.982,-17.998 0,-9.93 -8.068,-17.982 -17.982,-17.982 z m 0,32.271 c -7.882,0 -14.289,-6.408 -14.289,-14.305 0,-7.882 6.408,-14.289 14.289,-14.289 7.882,0 14.289,6.408 14.289,14.289 0.001,7.897 -6.407,14.305 -14.289,14.305 z"
   style="fill:#ffffff"
   inkscape:connector-curvature="0" />

	<path
   id="path206"
   d="m 259.114,242.065 c -9.914,0 -17.982,8.068 -17.982,17.982 0,9.914 8.068,17.998 17.982,17.998 9.914,0 17.982,-8.068 17.982,-17.998 0,-9.93 -8.068,-17.982 -17.982,-17.982 z m 0,32.271 c -7.882,0 -14.289,-6.408 -14.289,-14.305 0,-7.882 6.408,-14.289 14.289,-14.289 7.881,0 14.289,6.408 14.289,14.289 0,7.897 -6.408,14.305 -14.289,14.305 z"
   style="fill:#ffffff"
   inkscape:connector-curvature="0" />

	<path
   id="path208"
   d="m 237.532,242.065 c -9.914,0 -17.982,8.068 -17.982,17.982 0,9.914 8.068,17.998 17.982,17.998 9.914,0 17.982,-8.068 17.982,-17.998 0,-9.93 -8.068,-17.982 -17.982,-17.982 z m 0,32.271 c -7.882,0 -14.289,-6.408 -14.289,-14.305 0,-7.882 6.408,-14.289 14.289,-14.289 7.882,0 14.289,6.408 14.289,14.289 0.001,7.897 -6.407,14.305 -14.289,14.305 z"
   style="fill:#ffffff"
   inkscape:connector-curvature="0" />

	<path
   id="path210"
   d="m 215.95,242.065 c -9.914,0 -17.982,8.068 -17.982,17.982 0,9.914 8.068,17.998 17.982,17.998 9.914,0 17.982,-8.068 17.982,-17.998 0.001,-9.93 -8.067,-17.982 -17.982,-17.982 z m 0,32.271 c -7.882,0 -14.289,-6.408 -14.289,-14.305 0,-7.882 6.408,-14.289 14.289,-14.289 7.882,0 14.289,6.408 14.289,14.289 0.001,7.897 -6.407,14.305 -14.289,14.305 z"
   style="fill:#ffffff"
   inkscape:connector-curvature="0" />

</g>
      <path
         id="path214"
         d="M 263.023,127.951 V 93.693 c 0,-5.477 4.53,-10.007 10.147,-10.007 h 0.822 c 5.477,-0.419 10.147,4.112 10.147,9.449 v 33.513 c 0,6.578 4.794,12.335 11.233,12.738 6.997,0.279 12.738,-5.198 12.738,-12.055 v -24.979 c 0,-5.477 4.53,-10.007 10.007,-10.007 h 0.822 c 5.896,0 10.69,4.794 10.69,10.55 v 19.239 c 0,6.439 4.934,12.335 11.373,12.614 6.858,0.403 12.738,-5.073 12.738,-11.916 v -22.125 c 0,-5.756 4.794,-10.147 10.55,-10.007 0.14,0 0.14,0 0.14,0 0.14,0 0.14,0 0.279,0 5.756,-0.14 10.55,4.251 10.55,10.007 v 24.436 c 0,6.578 4.934,12.335 11.373,12.738 6.997,0.279 12.614,-5.213 12.614,-12.055 V 107.75 c -0.853,-1.614 -1.691,-3.181 -2.544,-4.81 C 386.726,84.555 370.466,73.88 348.434,75.711 133.766,75.633 142.951,75.385 142.951,75.385 c -10.457,-0.031 -29.96,3.77 -42.822,27.462 -0.931,1.753 -1.846,3.444 -2.777,5.213 v 14.072 c 0,6.439 4.934,12.335 11.512,12.614 6.858,0.403 12.614,-5.073 12.614,-11.916 v -22.125 c 0,-5.756 4.794,-10.147 10.69,-10.007 0,0 0,0 0.14,0 0,0 0,0 0.14,0 5.741,-0.14 10.674,4.251 10.674,10.007 v 24.436 c 0,6.578 4.794,12.335 11.233,12.738 6.873,0.264 12.49,-5.042 12.676,-11.745 V 93.507 c 0,-6.858 5.71,-12.335 12.645,-12.024 6.47,0.388 11.326,6.175 11.326,12.645 v 31.17 c 0.186,6.284 4.996,11.838 11.311,12.241 6.982,0.279 12.614,-5.213 12.614,-12.055 l 0.14,-26.562 c 0,-6.858 5.616,-12.335 12.614,-12.055 6.439,0.403 11.373,6.175 11.373,12.738 v 28.75 c 0.14,6.439 5.477,11.652 11.916,11.652 6.716,-0.001 12.053,-5.478 12.053,-12.056 z"
         style="fill:#209ae5"
         inkscape:connector-curvature="0" />
      <g
         id="g216">
</g>
      <g
         id="g218">
</g>
      <g
         id="g220">
</g>
      <g
         id="g222">
</g>
      <g
         id="g224">
</g>
      <g
         id="g226">
</g>
      <g
         id="g228">
</g>
      <g
         id="g230">
</g>
      <g
         id="g232">
</g>
      <g
         id="g234">
</g>
      <g
         id="g236">
</g>
      <g
         id="g238">
</g>
      <g
         id="g240">
</g>
      <g
         id="g242">
</g>
      <g
         id="g244">
</g>
    </g>
    <g
       style="fill:none"
       id="g338"
       transform="matrix(2.2713704,0,0,3.6934261,-2.8381206,-217.98955)">
      <rect
         id="rect292"
         height="30"
         width="182.978"
         y="4"
         x="1.02222"
         style="fill:#282828" />
      <g
         id="g308"
         clip-path="url(#clip0-4)">
        <path
           id="path294"
           d="m 40.0744,17.5325 c -0.8271,0 -1.5001,0.6583 -1.5001,1.4675 0,0.8092 0.673,1.4675 1.5001,1.4675 0.8272,0 1.5001,-0.6583 1.5001,-1.4675 0,-0.8092 -0.6729,-1.4675 -1.5001,-1.4675 z"
           inkscape:connector-curvature="0"
           style="fill:#f34a38" />
        <path
           id="path296"
           d="m 41.0679,13.0842 v 2.6463 c 0.7704,0.2244 1.4298,0.7025 1.8767,1.3352 l 2.5729,-0.8178 c -0.875,-1.6495 -2.5107,-2.8532 -4.4496,-3.1637 z"
           inkscape:connector-curvature="0"
           style="fill:#f34a38" />
        <path
           id="path298"
           d="m 46.1329,18.0962 -2.5737,0.818 c 7e-4,0.0286 0.0023,0.0571 0.0023,0.0858 0,0.7791 -0.2689,1.4975 -0.7199,2.0725 l 1.589,2.1395 c 1.0948,-1.0835 1.7719,-2.5718 1.7719,-4.212 0,-0.3072 -0.0238,-0.609 -0.0696,-0.9038 z"
           inkscape:connector-curvature="0"
           style="fill:#f34a38" />
        <path
           id="path300"
           d="M 40.0743,6.20314 H 27.9867 c -0.5487,0 -0.9936,0.43518 -0.9936,0.97196 0,0.53677 0.4449,0.97195 0.9936,0.97195 h 5.1646 c -1.0897,0.66756 -2.0721,1.48741 -2.9158,2.42935 h -6.7531 c -0.5487,0 -0.9935,0.4352 -0.9935,0.972 0,0.5368 0.4448,0.972 0.9935,0.972 h 5.3158 c -1.1463,1.9017 -1.8051,4.1167 -1.8051,6.4796 0,2.7494 0.8912,5.2991 2.4054,7.3873 h -2.819 c -0.5487,0 -0.9936,0.4352 -0.9936,0.972 0,0.5368 0.4449,0.9719 0.9936,0.9719 h 4.5532 c 0.6195,0.5685 1.2954,1.0786 2.0186,1.5217 h -9.5664 c -0.5487,0 -0.9935,0.4351 -0.9935,0.9719 0,0.5368 0.4448,0.972 0.9935,0.972 h 16.4894 c 7.2131,0 13.0813,-5.7407 13.0813,-12.7969 0,-7.0561 -5.8682,-12.79676 -13.0813,-12.79676 z m 4.8263,19.17536 c -0.0182,0.0151 -0.0364,0.0304 -0.0561,0.0443 -0.0221,0.0157 -0.0448,0.0304 -0.0678,0.0441 -1.3275,0.9265 -2.951,1.4721 -4.7024,1.4721 -1.7513,0 -3.3747,-0.5456 -4.7023,-1.4721 C 35.349,25.4532 35.3263,25.4385 35.3042,25.4228 35.2845,25.4088 35.2664,25.3935 35.248,25.3785 33.2538,23.9307 31.9589,21.6106 31.9589,19 c 0,-4.3776 3.6406,-7.9391 8.1154,-7.9391 4.4749,0 8.1155,3.5615 8.1155,7.9391 0,2.6106 -1.2949,4.9307 -3.2892,6.3785 z"
           inkscape:connector-curvature="0"
           style="fill:#f34a38" />
        <path
           id="path302"
           d="m 34.631,16.2478 2.5728,0.8179 c 0.447,-0.6327 1.1064,-1.1108 1.8768,-1.3352 v -2.6463 c -1.9388,0.3105 -3.5745,1.5141 -4.4496,3.1636 z"
           inkscape:connector-curvature="0"
           style="fill:#f34a38" />
        <path
           id="path304"
           d="m 41.2352,22.2165 c -0.3633,0.1259 -0.7538,0.195 -1.1607,0.195 -0.4068,0 -0.7974,-0.0691 -1.1608,-0.195 l -1.5894,2.14 c 0.8276,0.4082 1.7618,0.6386 2.7502,0.6386 0.9883,0 1.9226,-0.2304 2.7501,-0.6386 z"
           inkscape:connector-curvature="0"
           style="fill:#f34a38" />
        <path
           id="path306"
           d="m 36.587,19 c 0,-0.0287 0.0015,-0.0572 0.0022,-0.0858 l -2.5737,-0.818 C 33.9698,18.391 33.9459,18.6928 33.9459,19 c 0,1.6402 0.6771,3.1285 1.772,4.2121 l 1.589,-2.1396 C 36.856,20.4976 36.587,19.7791 36.587,19 Z"
           inkscape:connector-curvature="0"
           style="fill:#f34a38" />
      </g>
      <path
         id="path310"
         d="M 12.0142,21.9341 H 6.16943 V 32 H 2.87109 V 7.11719 h 8.23731 c 2.8027,0 4.9561,0.63802 6.46,1.91406 1.5153,1.27605 2.2729,3.13315 2.2729,5.57125 0,1.5495 -0.4215,2.8996 -1.2646,4.0503 -0.8317,1.1507 -1.9939,2.0109 -3.4864,2.5806 l 5.8448,10.5615 V 32 H 17.4146 Z M 6.16943,19.251 h 5.04147 c 1.6293,0 2.9224,-0.4216 3.8794,-1.2647 0.9685,-0.8431 1.4527,-1.971 1.4527,-3.3838 0,-1.538 -0.4615,-2.7172 -1.3843,-3.5376 C 14.2472,10.2446 12.9256,9.82878 11.1938,9.81738 H 6.16943 Z"
         inkscape:connector-curvature="0"
         style="fill:#f34a38" />
      <path
         id="path312"
         d="M 59.1104,32 V 7.11719 h 7.0239 c 2.1647,0 4.0788,0.47851 5.7422,1.43554 1.6634,0.95704 2.9451,2.31857 3.8452,4.08447 0.9114,1.766 1.3729,3.794 1.3843,6.084 v 1.5893 c 0,2.3471 -0.4558,4.4035 -1.3672,6.1695 -0.9001,1.7659 -2.1932,3.1217 -3.8794,4.0674 C 70.1846,31.493 68.2306,31.9772 65.9976,32 Z M 62.3916,9.81738 V 29.3169 h 3.4522 c 2.5292,0 4.4946,-0.7861 5.8959,-2.3584 1.4128,-1.5723 2.1192,-3.811 2.1192,-6.7163 v -1.4526 c 0,-2.8256 -0.6665,-5.0188 -1.9995,-6.5796 C 70.5378,10.6377 68.6579,9.84017 66.2197,9.81738 Z M 85.5996,32 H 82.3184 V 7.11719 h 3.2812 z m 8.4766,-2.6831 H 108.312 V 32 H 90.1968 V 29.5391 L 103.834,9.81738 H 90.4189 V 7.11719 h 17.3461 v 2.40967 z m 36.3498,-5.2124 c -0.307,2.6318 -1.281,4.6655 -2.922,6.1011 -1.629,1.4241 -3.8,2.1362 -6.511,2.1362 -2.94,0 -5.298,-1.0539 -7.076,-3.1616 -1.765,-2.1078 -2.648,-4.9276 -2.648,-8.4595 v -2.3926 c 0,-2.3128 0.41,-4.3465 1.23,-6.101 0.832,-1.7546 2.005,-3.09901 3.521,-4.03325 1.515,-0.94564 3.269,-1.41846 5.263,-1.41846 2.643,0 4.763,0.74056 6.358,2.22168 1.595,1.46973 2.523,3.50913 2.785,6.11813 h -3.298 c -0.285,-1.9824 -0.906,-3.4179 -1.863,-4.3066 -0.946,-0.88868 -2.273,-1.33301 -3.982,-1.33301 -2.096,0 -3.742,0.77471 -4.939,2.32421 -1.185,1.5495 -1.777,3.7541 -1.777,6.6138 v 2.4096 c 0,2.7002 0.564,4.8479 1.692,6.4429 1.128,1.5951 2.706,2.3926 4.734,2.3926 1.823,0 3.218,-0.4102 4.187,-1.2305 0.98,-0.8317 1.629,-2.2729 1.948,-4.3237 z m 18.235,1.4014 H 138.236 L 135.895,32 h -3.384 l 9.502,-24.88281 h 2.871 L 154.403,32 h -3.366 z m -9.433,-2.7002 h 8.459 l -4.238,-11.6382 z m 27.651,-0.8716 h -5.845 V 32 h -3.298 V 7.11719 h 8.237 c 2.803,0 4.956,0.63802 6.46,1.91406 1.515,1.27605 2.273,3.13315 2.273,5.57125 0,1.5495 -0.421,2.8996 -1.265,4.0503 -0.831,1.1507 -1.993,2.0109 -3.486,2.5806 L 175.8,31.7949 V 32 h -3.521 z m -5.845,-2.6831 h 5.042 c 1.629,0 2.922,-0.4216 3.879,-1.2647 0.969,-0.8431 1.453,-1.971 1.453,-3.3838 0,-1.538 -0.462,-2.7172 -1.385,-3.5376 -0.911,-0.8203 -2.233,-1.23612 -3.964,-1.24752 h -5.025 z"
         inkscape:connector-curvature="0"
         style="fill:#f34a38" />
    </g>
    <path
       inkscape:connector-curvature="0"
       style="fill:#f34a38;stroke-width:0.73256224;fill-opacity:0.94117647"
       d="m 342.71771,-10.037179 -18.43134,-34.209357 c -1.5012,-2.800778 -5.14903,-3.93414 -8.13403,-2.507154 -2.9797,1.412801 -4.179,4.826361 -2.67175,7.621465 l 5.70064,10.580404 c -34.11829,-25.463751 -76.08309,-39.324377 -120.34584,-39.324377 -51.74228,0 -100.380769,18.886283 -136.96651,53.17862 C 25.283139,19.59476 5.1319261,65.188795 5.1319261,113.68858 c 0,48.49978 20.1519699,94.09027 56.7369539,128.38331 1.182651,1.10854 2.730765,1.66246 4.279636,1.66246 1.548871,0 3.097742,-0.55392 4.279636,-1.66246 2.364544,-2.21636 2.364544,-5.80723 0,-8.0236 C 36.13129,201.89998 17.238392,159.15708 17.238392,113.68858 17.238392,68.220076 36.13129,25.474338 70.428908,-6.6739751 104.72653,-38.822288 150.32705,-56.5284 198.83539,-56.5284 c 41.48129,0 80.8099,12.985428 112.78838,36.839209 l -12.30698,-3.036954 c -3.22789,-0.795055 -6.54355,1.008535 -7.39479,4.039107 -0.85123,3.030571 1.07597,6.133485 4.30915,6.931377 l 39.54123,9.760525 c 0.51453,0.1276627 1.0283,0.1886571 1.54282,0.1886571 1.79705,0 3.54114,-0.7539193 4.70563,-2.1057258 1.5012,-1.7340854 1.77284,-4.1334356 0.69688,-6.1249743 z"
       id="path6378" />
    <g
       id="g6396"
       transform="matrix(0.75665414,0,0,0.7092374,5.1319261,-67.881872)"
       style="fill:#f34a38;fill-opacity:0.94117647">
	<path
   inkscape:connector-curvature="0"
   style="fill:#f34a38;fill-opacity:0.94117647"
   d="m 221.672,509.648 c -0.359,0 -0.734,-0.023 -1.102,-0.078 -5.43,-0.75 -10.914,-1.688 -16.289,-2.797 -4.328,-0.891 -7.109,-5.125 -6.219,-9.453 0.891,-4.32 5.063,-7.094 9.453,-6.219 5.023,1.039 10.109,1.914 15.242,2.625 4.375,0.602 7.438,4.641 6.828,9.016 -0.554,4.008 -3.976,6.906 -7.913,6.906 z"
   id="path6380" />

	<path
   inkscape:connector-curvature="0"
   style="fill:#f34a38;fill-opacity:0.94117647"
   d="m 171.273,497.156 c -0.906,0 -1.828,-0.156 -2.734,-0.484 -5.188,-1.883 -10.344,-3.953 -15.336,-6.148 -4.047,-1.773 -5.883,-6.5 -4.102,-10.539 1.766,-4.039 6.484,-5.883 10.539,-4.102 4.711,2.07 9.5,3.984 14.367,5.758 4.148,1.508 6.297,6.094 4.781,10.25 -1.179,3.25 -4.249,5.265 -7.515,5.265 z"
   id="path6382" />

	<path
   inkscape:connector-curvature="0"
   style="fill:#f34a38;fill-opacity:0.94117647"
   d="m 124.625,474.391 c -1.453,0 -2.922,-0.391 -4.242,-1.219 -4.664,-2.93 -9.242,-6 -13.695,-9.211 -3.586,-2.578 -4.398,-7.578 -1.82,-11.164 2.57,-3.586 7.578,-4.398 11.164,-1.82 4.188,3.008 8.469,5.891 12.852,8.633 3.742,2.352 4.875,7.289 2.531,11.031 -1.524,2.422 -4.126,3.75 -6.79,3.75 z"
   id="path6384" />

	<path
   inkscape:connector-curvature="0"
   style="fill:#f34a38;fill-opacity:0.94117647"
   d="m 492.477,338.945 c -0.797,0 -1.609,-0.117 -2.414,-0.375 -4.211,-1.328 -6.547,-5.828 -5.211,-10.039 1.547,-4.898 2.945,-9.867 4.188,-14.891 1.055,-4.289 5.414,-6.93 9.68,-5.852 4.289,1.055 6.914,5.391 5.852,9.68 -1.32,5.367 -2.813,10.664 -4.469,15.891 -1.08,3.407 -4.228,5.586 -7.626,5.586 z"
   id="path6386" />

	<path
   inkscape:connector-curvature="0"
   style="fill:#f34a38;fill-opacity:0.94117647"
   d="m 502.859,288.109 c -0.25,0 -0.508,-0.008 -0.766,-0.039 -4.398,-0.414 -7.625,-4.32 -7.203,-8.719 0.484,-5.102 0.813,-10.25 0.984,-15.453 0.133,-4.414 3.938,-8.063 8.25,-7.734 4.414,0.141 7.883,3.836 7.734,8.25 -0.172,5.531 -0.531,11.023 -1.047,16.453 -0.389,4.141 -3.873,7.242 -7.952,7.242 z"
   id="path6388" />

	<path
   inkscape:connector-curvature="0"
   style="fill:#f34a38;fill-opacity:0.94117647"
   d="m 502.453,236.219 c -4.031,0 -7.492,-3.031 -7.945,-7.125 -0.555,-5.055 -1.297,-10.203 -2.203,-15.297 -0.773,-4.352 2.125,-8.508 6.469,-9.281 4.438,-0.781 8.516,2.125 9.281,6.469 0.969,5.453 1.766,10.953 2.359,16.359 0.484,4.391 -2.688,8.344 -7.078,8.828 -0.297,0.031 -0.594,0.047 -0.883,0.047 z"
   id="path6390" />

	<path
   inkscape:connector-curvature="0"
   style="fill:#f34a38;fill-opacity:0.94117647"
   d="m 491.328,185.531 c -3.352,0 -6.477,-2.117 -7.594,-5.477 -1.625,-4.898 -3.422,-9.734 -5.359,-14.492 -1.672,-4.094 0.297,-8.762 4.383,-10.43 4.078,-1.68 8.758,0.289 10.43,4.383 2.078,5.086 4,10.297 5.734,15.492 1.391,4.188 -0.875,8.719 -5.07,10.117 -0.836,0.274 -1.688,0.407 -2.524,0.407 z"
   id="path6392" />

	<path
   inkscape:connector-curvature="0"
   style="fill:#f34a38;fill-opacity:0.94117647"
   d="m 469.828,138.301 c -2.742,0 -5.406,-1.406 -6.898,-3.938 -2.625,-4.449 -5.383,-8.813 -8.281,-13.078 -2.484,-3.656 -1.531,-8.633 2.125,-11.113 3.656,-2.488 8.625,-1.531 11.109,2.121 3.086,4.547 6.031,9.199 8.828,13.945 2.242,3.805 0.977,8.711 -2.828,10.953 -1.274,0.754 -2.672,1.11 -4.055,1.11 z"
   id="path6394" />

</g>
    <path
       inkscape:connector-curvature="0"
       style="fill:#f34a38;stroke-width:0.73256224;fill-opacity:0.94117647"
       d="m 342.71771,-10.037179 -18.43134,-34.209357 c -1.5012,-2.800778 -5.14903,-3.93414 -8.13403,-2.507154 -2.9797,1.412801 -4.179,4.826361 -2.67175,7.621465 l 5.70064,10.580404 c -34.11829,-25.463751 -76.08309,-39.324377 -120.34584,-39.324377 -7.66869,0 -15.25491,0.46455 -22.7473,1.319891 -3.60243,0.411357 -5.9526,3.801512 -4.96062,7.073934 0.0114,0.03688 0.0219,0.07376 0.0333,0.109931 0.81794,2.703613 3.58503,4.412875 6.56095,4.074569 6.95516,-0.7908 13.99432,-1.230527 21.11368,-1.230527 41.48129,0 80.8099,12.985428 112.78838,36.839209 l -12.30698,-3.036954 c -3.22789,-0.795055 -6.54355,1.008535 -7.39479,4.039107 -0.85123,3.030571 1.07597,6.133485 4.30915,6.931377 l 39.54123,9.760525 c 0.51453,0.1276627 1.0283,0.1886571 1.54282,0.1886571 1.79705,0 3.54114,-0.7539193 4.70563,-2.1057258 1.5012,-1.7340854 1.77284,-4.1334356 0.69688,-6.1249743 z"
       id="path6398" />
    <g
       id="g6422"
       transform="matrix(0.75665414,0,0,0.7092374,5.1319261,-67.881872)">
</g>
    <g
       id="g6424"
       transform="matrix(0.75665414,0,0,0.7092374,5.1319261,-67.881872)">
</g>
    <g
       id="g6426"
       transform="matrix(0.75665414,0,0,0.7092374,5.1319261,-67.881872)">
</g>
    <g
       id="g6428"
       transform="matrix(0.75665414,0,0,0.7092374,5.1319261,-67.881872)">
</g>
    <g
       id="g6430"
       transform="matrix(0.75665414,0,0,0.7092374,5.1319261,-67.881872)">
</g>
    <g
       id="g6432"
       transform="matrix(0.75665414,0,0,0.7092374,5.1319261,-67.881872)">
</g>
    <g
       id="g6434"
       transform="matrix(0.75665414,0,0,0.7092374,5.1319261,-67.881872)">
</g>
    <g
       id="g6436"
       transform="matrix(0.75665414,0,0,0.7092374,5.1319261,-67.881872)">
</g>
    <g
       id="g6438"
       transform="matrix(0.75665414,0,0,0.7092374,5.1319261,-67.881872)">
</g>
    <g
       id="g6440"
       transform="matrix(0.75665414,0,0,0.7092374,5.1319261,-67.881872)">
</g>
    <g
       id="g6442"
       transform="matrix(0.75665414,0,0,0.7092374,5.1319261,-67.881872)">
</g>
    <g
       id="g6444"
       transform="matrix(0.75665414,0,0,0.7092374,5.1319261,-67.881872)">
</g>
    <g
       id="g6446"
       transform="matrix(0.75665414,0,0,0.7092374,5.1319261,-67.881872)">
</g>
    <g
       id="g6448"
       transform="matrix(0.75665414,0,0,0.7092374,5.1319261,-67.881872)">
</g>
    <g
       id="g6450"
       transform="matrix(0.75665414,0,0,0.7092374,5.1319261,-67.881872)">
</g>
  </g>
</svg>
